<svg xmlns="http://www.w3.org/2000/svg" viewBox="0 0 24 24"><path fill="#000" d="M12 .5C5.37.5 0 5.78 0 12.29c0 5.2 3.44 9.6 8.21 11.16.6.11.82-.26.82-.58 0-.28-.01-1.04-.02-2.04-3.34.72-4.04-1.6-4.04-1.6-.55-1.39-1.34-1.76-1.34-1.76-1.09-.74.08-.73.08-.73 1.21.09 1.85 1.24 1.85 1.24 1.07 1.83 2.81 1.3 3.5.99.11-.78.42-1.3.76-1.6-2.67-.3-5.47-1.33-5.47-5.93 0-1.31.47-2.38 1.24-3.22-.13-.3-.54-1.52.12-3.18 0 0 1.01-.32 3.3 1.23a11.5 11.5 0 0 1 6.01 0c2.29-1.55 3.3-1.23 3.3-1.23.66 1.66.25 2.88.12 3.18.77.84 1.23 1.91 1.23 3.22 0 4.61-2.8 5.63-5.48 5.92.43.37.81 1.1.81 2.22 0 1.6-.02 2.9-.02 3.29 0 .32.22.7.83.58A12.01 12.01 0 0 0 24 12.29C24 5.78 18.63.5 12 .5z"/></svg>
