<svg xmlns="http://www.w3.org/2000/svg" viewBox="0 0 1440 1440"><path d="M688.5,1333.9 C684.1,1333.4 674.9,1331.6 668.0,1330.0 C661.1,1328.5 653.9,1326.9 652.0,1326.5 C633.4,1323.0 593.3,1305.2 572.8,1291.4 C533.1,1264.6 497.9,1225.6 478.5,1187.0 C468.9,1167.7 459.3,1141.0 456.5,1125.5 C455.6,1120.5 454.0,1113.0 452.9,1108.8 C447.2,1086.2 447.8,1039.5 454.1,1012.7 C460.6,985.1 457.4,980.6 436.5,987.2 C417.4,993.3 348.5,994.0 327.0,988.5 C324.0,987.7 317.7,986.1 313.0,984.9 C263.6,972.6 224.0,950.0 187.0,913.0 C164.5,890.4 150.3,871.3 136.4,844.5 C130.6,833.4 122.8,814.9 121.0,808.0 C120.4,805.5 118.6,799.7 117.0,795.0 C115.4,790.3 113.4,781.5 112.5,775.3 C111.6,769.2 110.5,762.7 109.9,760.8 C108.5,755.8 106.0,730.7 106.0,721.0 C106.0,713.0 108.6,684.5 109.4,683.1 C109.6,682.8 110.8,676.6 111.9,669.5 C118.6,628.6 140.3,582.0 168.5,548.0 C200.3,509.7 236.7,483.4 281.5,466.3 C286.4,464.4 292.7,462.0 295.3,460.9 C298.0,459.8 305.2,457.8 311.3,456.5 C317.5,455.2 326.8,453.1 332.0,451.8 C341.1,449.6 343.3,449.5 380.0,449.5 C418.5,449.5 418.5,449.5 431.3,452.8 C456.6,459.1 459.8,456.6 454.2,435.0 C449.6,417.1 448.7,406.4 449.2,371.5 C449.7,342.0 449.8,340.0 452.4,329.5 C453.9,323.4 455.8,315.0 456.6,310.7 C460.1,292.7 474.6,258.2 487.5,237.0 C508.5,202.5 542.9,167.6 576.6,146.8 C603.1,130.4 640.8,115.5 665.8,111.6 C671.5,110.7 679.8,109.1 684.3,108.0 C691.4,106.3 696.1,106.0 719.9,106.0 C747.3,106.0 747.3,106.0 770.4,110.5 C817.6,119.8 850.9,134.7 888.5,163.6 C907.5,178.2 934.7,207.2 946.4,225.4 C961.8,249.2 967.0,259.2 975.0,280.5 C977.0,286.1 979.2,291.6 979.9,292.8 C980.6,294.0 982.0,299.2 983.1,304.3 C984.2,309.4 985.9,316.2 987.0,319.5 C992.2,336.2 994.2,382.0 991.1,413.5 C989.8,426.6 989.5,428.0 986.4,439.2 C981.8,455.3 987.0,459.2 1005.9,454.0 C1019.9,450.1 1031.9,449.0 1062.5,449.0 C1100.6,449.0 1116.8,451.5 1150.4,462.6 C1174.3,470.5 1214.2,492.3 1231.2,506.7 C1255.5,527.3 1255.0,526.8 1272.4,547.3 C1283.1,559.9 1293.6,575.6 1304.3,595.0 C1312.4,609.6 1323.9,641.4 1327.5,658.9 C1328.9,665.8 1330.7,674.4 1331.5,678.0 C1335.4,695.0 1335.6,742.0 1331.8,760.0 C1330.8,765.2 1329.0,774.7 1327.8,781.0 C1326.7,787.3 1324.9,795.0 1323.8,798.0 C1322.7,801.0 1320.6,807.3 1319.0,812.0 C1314.5,825.9 1305.4,844.9 1294.7,862.8 C1261.7,918.0 1197.4,967.3 1139.0,982.1 C1134.9,983.2 1127.4,985.1 1122.4,986.5 C1094.6,994.2 1024.8,994.2 1003.1,986.5 C997.6,984.6 991.1,984.6 988.3,986.5 C985.1,988.8 984.7,992.8 987.0,1000.0 C995.0,1025.3 995.3,1103.0 987.5,1125.0 C986.6,1127.5 984.8,1133.8 983.5,1139.1 C982.1,1144.5 980.2,1150.8 979.2,1153.1 C978.1,1155.5 976.3,1160.4 975.0,1164.0 C961.2,1203.3 922.7,1253.4 885.0,1281.2 C848.8,1307.9 808.5,1324.9 762.0,1333.1 C753.7,1334.6 699.0,1335.1 688.5,1333.9 Z M741.0,1310.1 C797.4,1303.1 833.4,1288.9 873.5,1258.0 C919.6,1222.4 949.6,1174.3 964.6,1112.0 C968.3,1096.5 968.3,1096.5 968.8,1069.9 C969.6,1024.5 964.3,999.1 945.7,958.1 C936.0,936.8 937.1,935.4 956.5,944.6 C963.1,947.7 972.1,951.5 976.5,953.1 C980.9,954.6 987.0,956.7 990.0,957.9 C993.1,959.0 998.7,960.4 1002.5,961.0 C1006.4,961.7 1014.0,963.3 1019.5,964.6 C1025.7,966.1 1035.6,967.4 1045.5,968.1 C1116.1,972.8 1186.5,945.9 1237.2,894.8 C1274.1,857.6 1297.5,812.0 1306.7,759.5 C1310.2,739.5 1310.8,703.7 1307.8,689.4 C1306.8,684.9 1305.6,677.2 1305.0,672.4 C1302.5,652.5 1288.2,615.7 1273.8,592.6 C1236.7,532.7 1176.0,490.1 1110.5,477.9 C1101.7,476.2 1090.7,474.2 1086.0,473.3 C1073.7,471.1 1040.8,472.0 1029.3,474.9 C1024.8,476.0 1016.5,477.7 1010.8,478.6 C996.0,480.9 966.2,491.2 951.4,499.0 C937.0,506.6 933.7,503.1 941.8,488.7 C962.6,451.6 973.3,391.4 967.0,347.5 C955.2,266.0 907.5,197.9 835.0,159.1 C800.0,140.3 753.2,129.0 715.5,130.3 C698.6,130.8 666.3,135.6 656.5,139.0 C653.2,140.1 647.8,141.8 644.5,142.6 C633.7,145.4 608.9,156.9 592.8,166.6 C560.9,185.7 527.2,219.7 508.5,251.5 C494.5,275.3 481.6,307.4 478.5,326.0 C477.6,331.2 475.9,340.2 474.7,346.0 C471.8,359.8 471.5,397.6 474.2,407.5 C475.1,410.8 477.0,420.0 478.4,428.0 C481.8,447.3 490.7,473.4 499.5,489.5 C503.7,497.3 504.4,500.4 502.4,502.1 C500.5,503.7 498.7,503.1 481.0,495.0 C464.8,487.7 441.6,480.3 427.7,477.9 C421.2,476.8 413.1,475.2 409.7,474.2 C399.5,471.4 359.5,471.7 347.5,474.7 C342.6,476.0 334.2,477.7 328.8,478.5 C294.2,483.9 256.4,502.4 219.5,532.1 C205.4,543.4 182.1,570.0 170.6,587.7 C160.5,603.4 145.9,635.0 142.0,650.0 C141.0,653.6 139.3,659.6 138.2,663.5 C130.6,688.8 131.0,753.3 138.9,779.2 C140.5,784.3 142.3,791.0 143.0,794.0 C143.7,797.0 146.2,804.2 148.5,810.0 C168.4,859.6 204.1,902.4 249.1,930.8 C261.4,938.5 283.0,949.4 292.3,952.4 C296.2,953.7 302.0,955.8 305.0,957.0 C315.6,961.2 346.2,967.0 363.7,968.1 C380.8,969.2 410.1,968.0 417.0,966.0 C418.9,965.4 425.9,963.8 432.5,962.5 C451.8,958.4 474.3,950.2 494.4,940.0 C501.1,936.6 503.5,936.3 504.8,938.7 C506.1,940.9 505.1,944.1 499.7,954.6 C479.8,993.3 470.6,1040.3 474.9,1081.5 C477.0,1102.1 479.8,1118.4 482.9,1128.1 C484.5,1133.3 486.4,1139.5 487.0,1142.0 C490.2,1153.9 502.3,1179.0 513.0,1195.4 C524.5,1213.1 531.6,1221.7 547.4,1237.6 C577.3,1267.5 610.2,1287.6 649.5,1299.8 C663.8,1304.3 667.0,1305.0 687.5,1307.9 C719.5,1312.6 720.4,1312.6 741.0,1310.1 Z M703.0,1287.1 C623.9,1281.0 548.2,1226.8 516.2,1153.5 C498.2,1112.1 492.9,1067.1 500.8,1023.0 C514.7,946.0 569.8,879.9 642.8,852.6 C666.3,843.8 676.8,842.2 681.7,846.4 C684.5,848.8 684.5,848.8 684.8,876.3 C685.2,912.2 685.7,910.9 667.5,918.1 C621.0,936.5 589.9,969.2 574.6,1015.5 C565.5,1043.2 565.3,1081.5 574.2,1109.0 C590.2,1158.5 625.3,1193.8 675.0,1210.4 C688.7,1215.0 699.4,1216.3 722.0,1216.3 C744.3,1216.2 752.6,1215.1 769.0,1209.8 C854.8,1182.3 899.1,1088.3 865.3,1005.5 C856.4,983.8 848.0,971.0 831.9,954.9 C813.8,936.9 800.3,927.8 778.4,919.1 C756.9,910.6 758.3,913.4 757.8,877.8 C757.5,847.2 757.7,845.9 764.3,843.6 C773.3,840.4 819.7,858.7 844.8,875.3 C908.8,917.8 946.0,986.7 946.0,1062.8 C946.0,1086.0 944.8,1096.5 939.8,1116.5 C932.7,1144.7 919.2,1173.6 902.5,1196.0 C894.9,1206.1 863.4,1237.5 853.5,1244.7 C810.4,1276.0 756.5,1291.2 703.0,1287.1 Z M695.4,1191.5 C686.6,1190.2 670.1,1184.6 660.1,1179.5 C625.6,1162.1 597.8,1123.6 592.6,1086.2 C584.9,1030.9 605.2,981.6 646.9,954.5 C672.3,938.0 680.0,937.1 680.8,950.3 C681.5,961.5 680.6,962.9 666.2,972.4 C642.4,988.1 628.8,1005.5 619.4,1032.5 C615.6,1043.5 615.6,1043.5 615.6,1062.5 C615.6,1081.5 615.6,1081.5 619.3,1092.5 C625.8,1111.8 632.4,1122.5 647.0,1137.0 C663.4,1153.4 680.7,1163.2 701.5,1168.1 C708.2,1169.7 733.9,1169.7 741.9,1168.1 C767.0,1163.2 794.7,1144.5 809.8,1122.3 C814.7,1115.1 822.5,1099.7 823.9,1094.5 C826.7,1083.9 829.1,1061.5 828.1,1055.5 C827.5,1052.2 826.6,1046.2 826.0,1042.1 C822.3,1016.6 803.5,990.0 776.7,972.3 C762.1,962.7 761.0,961.1 761.0,950.8 C761.0,938.7 765.1,937.3 779.6,944.4 C805.5,956.9 828.7,980.6 841.0,1006.7 C843.3,1011.6 847.0,1022.5 849.3,1031.0 C853.5,1046.4 853.5,1046.7 853.4,1063.0 C853.3,1089.7 846.3,1113.3 832.1,1135.2 C825.3,1145.7 805.6,1165.9 796.0,1172.2 C782.4,1181.0 762.3,1189.3 749.0,1191.5 C737.3,1193.3 708.4,1193.4 695.4,1191.5 Z M715.0,1034.4 C710.7,1032.6 708.2,1030.3 706.4,1026.7 C704.1,1022.4 704.2,761.4 706.4,757.1 C713.0,744.4 731.6,746.6 736.4,760.7 C738.8,767.7 738.8,1016.4 736.5,1023.1 C732.8,1033.4 723.7,1038.2 715.0,1034.4 Z M356.0,944.0 C334.1,942.7 303.1,933.6 278.1,921.0 C215.9,889.8 167.8,824.3 158.0,757.3 C154.0,730.1 156.1,681.8 162.0,664.1 C163.0,661.0 165.0,654.5 166.5,649.6 C169.6,639.1 177.1,622.8 185.9,607.5 C211.1,563.5 257.5,524.9 304.6,508.7 C381.4,482.3 460.3,496.9 523.5,549.0 C557.9,577.5 581.5,613.5 595.1,658.5 C600.2,675.4 600.1,677.8 594.1,681.0 C590.1,683.1 537.3,682.7 533.1,680.6 C529.7,678.8 529.2,677.9 521.1,658.8 C500.5,610.5 455.2,575.9 402.5,568.0 C335.2,557.9 268.8,592.7 239.9,653.4 C223.2,688.5 220.4,729.2 232.0,767.0 C249.7,824.3 298.2,865.1 358.3,873.2 C425.3,882.2 488.9,848.8 517.9,789.5 C521.2,782.9 524.5,775.2 525.4,772.5 C530.1,757.7 530.8,757.5 565.0,757.9 C593.4,758.2 596.9,758.7 598.4,762.5 C601.7,771.2 586.4,812.7 569.9,839.7 C554.5,864.9 520.5,898.2 494.3,913.6 C451.8,938.8 413.3,947.2 356.0,944.0 Z M1038.5,944.1 C1025.0,943.2 1000.3,937.5 985.3,931.9 C917.5,906.4 862.3,846.4 845.4,779.8 C842.3,767.2 842.5,762.5 846.3,759.6 C849.1,757.6 850.0,757.5 877.3,757.8 C913.0,758.3 909.8,756.8 918.4,777.7 C927.2,799.4 936.7,813.5 954.3,831.1 C975.6,852.5 1003.1,866.8 1033.2,872.1 C1112.0,886.2 1186.7,841.5 1209.8,766.5 C1221.3,729.0 1217.3,683.0 1199.4,649.5 C1176.1,605.7 1134.2,575.1 1088.5,568.5 C1063.0,564.9 1062.1,564.9 1042.6,567.6 C1015.4,571.4 998.6,577.7 976.0,592.4 C950.2,609.2 933.7,629.2 919.7,660.6 C916.2,668.3 912.9,675.5 912.2,676.7 C909.6,681.4 907.2,681.8 879.5,682.0 C846.8,682.3 848.4,682.5 845.5,679.5 C842.3,676.4 842.3,673.8 845.9,660.3 C863.6,592.9 920.8,531.7 987.8,508.6 C995.5,506.0 1009.5,502.3 1021.3,499.9 C1041.5,495.8 1041.5,495.8 1065.5,496.3 C1088.4,496.7 1090.3,496.9 1106.9,500.4 C1152.6,510.1 1191.3,531.6 1223.5,565.1 C1244.2,586.7 1265.6,619.9 1272.0,640.5 C1273.2,644.4 1275.5,651.3 1277.1,655.9 C1278.8,660.5 1281.0,669.8 1282.1,676.4 C1283.2,683.0 1284.8,691.2 1285.6,694.5 C1286.5,698.5 1287.0,706.6 1287.0,719.2 C1287.0,760.0 1275.2,802.2 1254.0,837.0 C1236.9,865.0 1203.3,898.0 1174.7,914.8 C1159.2,924.0 1135.3,934.3 1124.8,936.5 C1123.0,936.9 1115.4,938.7 1107.9,940.5 C1095.0,943.7 1093.0,943.9 1071.9,944.3 C1059.6,944.6 1044.5,944.5 1038.5,944.1 Z M362.9,851.6 C362.7,851.4 356.3,849.8 348.7,848.1 C303.4,837.9 269.1,805.9 253.4,759.0 C249.5,747.5 249.5,747.5 249.5,721.0 C249.5,694.5 249.5,694.5 254.1,680.4 C260.6,660.9 266.1,650.8 279.9,633.8 C294.3,616.0 327.4,596.0 347.6,593.0 C351.4,592.5 360.3,591.1 367.3,590.0 C381.4,587.8 380.0,587.7 412.1,593.4 C445.9,599.5 481.0,627.9 498.0,663.0 C503.8,675.1 502.0,679.0 490.4,679.0 C480.0,679.0 478.3,677.8 469.2,664.3 C455.0,643.4 437.9,629.2 416.9,621.0 C403.0,615.6 396.2,614.7 374.5,615.2 C356.5,615.7 356.5,615.7 344.8,620.2 C304.8,635.6 281.3,664.2 273.0,707.7 C269.8,724.3 274.7,748.8 285.4,769.7 C298.8,795.8 327.8,818.4 356.1,824.7 C365.3,826.7 389.1,826.9 400.5,825.1 C425.3,821.1 452.5,802.5 467.8,779.0 C478.8,762.1 480.2,761.0 491.0,761.0 C497.8,761.0 502.0,763.8 502.0,768.2 C502.0,774.9 488.1,797.4 476.2,810.1 C460.3,827.0 437.0,841.9 420.0,846.0 C395.9,851.7 394.0,852.0 378.6,852.0 C370.2,852.0 363.1,851.8 362.9,851.6 Z M1032.8,848.5 C993.9,839.7 962.9,815.8 945.0,780.8 C938.5,768.1 938.0,766.0 941.0,763.0 C942.7,761.3 944.3,761.0 950.8,761.0 C961.1,761.0 963.1,762.4 970.0,774.0 C985.9,801.0 1016.4,821.8 1045.7,825.7 C1068.9,828.7 1086.9,826.3 1105.2,817.7 C1119.7,810.9 1124.2,807.8 1135.4,797.0 C1171.7,762.1 1179.4,710.6 1154.7,668.7 C1140.5,644.8 1122.8,629.9 1096.5,619.9 C1085.5,615.7 1085.5,615.7 1067.4,615.2 C1045.8,614.7 1038.8,615.6 1025.5,620.9 C1003.0,629.6 983.7,645.4 971.7,664.8 C963.4,678.2 962.2,679.0 950.9,679.0 C938.7,679.0 937.4,675.8 944.1,661.9 C962.2,624.3 999.5,597.0 1040.0,591.5 C1046.3,590.7 1054.1,589.5 1057.2,588.9 C1061.8,588.0 1064.3,588.1 1070.2,589.4 C1074.2,590.2 1081.4,591.4 1086.2,592.0 C1091.0,592.6 1097.8,593.9 1101.3,595.0 C1140.2,607.0 1169.0,633.7 1184.3,672.0 C1189.3,684.3 1189.8,686.4 1191.5,698.4 C1195.8,729.8 1190.9,759.9 1177.4,784.8 C1149.8,835.4 1090.4,861.6 1032.8,848.5 Z M596.7,845.3 C595.0,843.6 596.5,838.7 601.6,829.0 C606.8,819.2 617.0,793.7 617.0,790.6 C617.0,787.9 622.8,769.1 624.6,766.1 C627.0,762.1 630.8,760.7 637.7,761.2 C646.9,762.0 649.2,768.1 645.5,782.0 C641.3,797.5 645.9,801.8 661.2,797.0 C674.4,792.9 680.0,794.9 680.8,804.1 C681.7,815.5 677.4,819.8 662.7,822.5 C657.7,823.4 650.4,825.4 646.6,827.0 C642.7,828.5 637.0,830.5 634.0,831.3 C631.0,832.2 622.5,835.9 615.1,839.5 C602.7,845.6 598.3,847.0 596.7,845.3 Z M830.5,840.6 C825.0,838.3 819.1,835.6 817.3,834.7 C811.0,831.4 788.7,824.1 778.7,822.0 C763.9,819.0 761.0,816.3 761.0,805.2 C761.0,799.8 761.4,798.5 763.5,796.5 C766.6,793.3 769.2,793.4 780.8,796.6 C797.4,801.1 801.1,797.4 796.0,781.2 C791.5,766.8 794.1,761.0 804.9,761.0 C815.6,761.0 818.8,764.8 822.1,781.3 C824.7,793.8 831.1,811.4 839.1,828.1 C844.3,838.9 845.0,841.1 844.1,842.9 C842.6,845.7 842.1,845.6 830.5,840.6 Z M421.2,736.5 C411.2,734.1 406.5,728.8 406.5,720.0 C406.5,710.5 412.0,705.0 423.8,703.0 C434.2,701.2 674.0,702.0 679.5,703.9 C684.6,705.6 690.5,711.5 691.8,716.3 C693.9,723.9 688.1,733.2 679.5,736.1 C673.7,738.1 429.1,738.5 421.2,736.5 Z M766.3,737.0 C749.7,733.6 743.8,718.8 755.0,708.6 C762.1,702.2 755.4,702.5 893.0,702.5 C1031.5,702.5 1024.4,702.2 1031.1,708.9 C1039.9,717.6 1035.9,732.0 1023.5,736.1 C1018.9,737.7 773.9,738.5 766.3,737.0 Z M715.7,690.6 C713.6,689.8 711.0,688.4 709.8,687.3 C704.7,682.7 704.9,689.8 704.9,547.9 C704.9,416.1 704.9,415.8 707.0,412.5 C714.2,400.8 731.7,403.4 736.5,416.9 C738.4,422.3 738.8,671.5 737.0,678.2 C734.3,687.8 724.2,693.6 715.7,690.6 Z M627.8,677.3 C624.1,675.0 620.3,666.0 617.5,652.8 C616.7,649.0 614.8,643.2 613.4,639.8 C611.9,636.3 609.9,630.8 608.8,627.6 C607.7,624.3 604.4,616.8 601.4,610.8 C595.6,599.2 595.2,597.9 597.4,596.0 C598.6,595.1 602.2,596.3 615.7,602.3 C634.5,610.6 649.2,615.8 662.3,618.9 C672.7,621.3 677.2,623.8 679.4,628.4 C682.3,634.5 680.7,643.8 676.5,645.4 C673.6,646.5 665.7,646.0 660.0,644.5 C645.5,640.6 641.5,644.9 645.5,660.0 C647.1,665.8 647.4,671.7 646.4,674.5 C644.7,678.8 633.1,680.5 627.8,677.3 Z M796.5,676.5 C793.3,673.4 793.3,670.0 796.6,658.5 C801.0,643.5 797.4,639.8 782.9,644.0 C765.9,648.9 760.4,646.4 761.2,634.3 C761.8,624.0 765.4,621.5 785.0,617.5 C794.9,615.5 808.8,610.2 827.0,601.4 C841.8,594.4 843.4,594.0 845.1,597.1 C846.0,598.9 845.1,601.5 838.7,614.9 C830.6,631.9 825.2,646.6 822.0,660.3 C818.5,675.4 815.2,679.0 804.7,679.0 C799.9,679.0 798.5,678.6 796.5,676.5 Z M660.0,594.8 C619.6,582.1 593.5,566.9 565.2,539.5 C530.5,505.9 510.8,470.0 500.2,420.8 C496.5,403.5 496.5,403.5 496.5,377.5 C496.5,351.8 496.5,351.4 499.8,336.5 C507.4,302.0 519.7,273.4 537.6,248.8 C580.8,189.3 645.7,155.1 718.5,153.2 C749.0,152.5 789.4,161.7 818.5,176.1 C841.8,187.7 857.1,198.9 878.6,220.4 C899.2,241.0 907.7,252.2 919.6,274.2 C929.1,291.8 934.1,305.5 940.4,332.0 C947.0,359.8 946.9,399.2 940.0,426.5 C938.4,433.1 937.0,439.1 937.0,439.8 C937.0,440.5 934.9,446.6 932.4,453.3 C906.6,522.5 852.0,573.8 782.3,594.4 C764.2,599.7 759.9,599.1 758.1,590.8 C757.7,589.0 757.6,575.3 757.9,560.3 C758.6,528.1 757.6,530.4 773.4,523.9 C800.7,512.7 811.3,505.9 828.6,488.6 C860.8,456.3 874.2,424.2 874.4,379.0 C874.6,316.5 843.7,266.7 787.9,239.6 C725.3,209.1 650.7,223.9 604.7,275.8 C582.2,301.2 571.6,326.6 566.5,367.1 C563.7,389.8 569.4,420.0 581.1,445.0 C598.1,480.8 629.4,509.5 666.9,523.4 C685.7,530.4 685.1,529.0 684.8,564.7 C684.5,592.8 684.5,592.8 682.1,595.4 C678.8,598.9 672.5,598.7 660.0,594.8 Z M664.5,497.4 C641.3,487.1 619.8,467.7 607.5,446.0 C598.3,429.8 593.9,417.1 591.5,400.0 C590.7,393.7 589.5,386.2 589.0,383.4 C588.3,380.0 588.2,376.8 588.9,373.9 C589.4,371.5 590.4,365.4 591.0,360.5 C593.4,341.1 600.0,321.2 608.0,309.4 C632.1,274.0 664.3,252.7 699.3,249.0 C719.3,246.9 721.9,246.8 736.9,248.4 C792.7,254.3 836.2,293.4 848.6,348.9 C861.5,406.5 837.0,463.4 786.7,492.4 C765.7,504.5 761.0,504.0 761.0,489.9 C761.0,479.2 762.4,477.2 774.3,469.8 C812.3,446.5 831.2,407.4 826.1,363.0 C820.7,317.3 778.1,276.3 731.2,271.9 C684.5,267.5 640.1,295.1 621.0,340.7 C615.8,353.0 615.0,357.9 615.0,376.5 C615.0,397.0 615.9,402.8 620.5,414.4 C630.9,440.1 646.2,457.7 670.9,472.5 C678.5,477.0 680.9,481.4 681.0,490.3 C681.0,495.1 680.6,496.5 678.5,498.5 C675.4,501.7 674.0,501.6 664.5,497.4 Z" fill="currentColor" fill-rule="evenodd"/></svg>