<svg xmlns="http://www.w3.org/2000/svg" viewBox="158.5 158.5 2006 2006"><g transform="translate(160.0,334.5)"><path d="M608.00,1533.50 C607.32,1532.67 605.29,1532.00 603.50,1532.00 C601.71,1532.00 599.68,1531.33 599.00,1530.50 C598.32,1529.67 596.97,1529.00 596.00,1529.00 C595.03,1529.00 593.68,1528.33 593.00,1527.50 C592.32,1526.67 591.01,1526.00 590.09,1526.00 C587.98,1526.00 578.00,1515.97 578.00,1513.84 C578.00,1512.96 577.33,1511.68 576.50,1511.00 C575.67,1510.32 575.00,1508.97 575.00,1508.00 C575.00,1507.03 574.33,1505.68 573.50,1505.00 C572.32,1504.02 572.00,1501.17 572.00,1491.50 C572.00,1481.83 572.32,1478.98 573.50,1478.00 C574.33,1477.32 575.00,1475.97 575.00,1475.00 C575.00,1474.03 575.67,1472.68 576.50,1472.00 C577.33,1471.32 578.00,1470.09 578.00,1469.28 C578.00,1468.46 580.02,1465.75 582.50,1463.23 C584.98,1460.72 587.00,1458.02 587.00,1457.23 C587.00,1455.35 597.35,1445.00 599.23,1445.00 C600.02,1445.00 602.72,1442.97 605.23,1440.50 C607.75,1438.03 610.44,1436.00 611.23,1436.00 C612.02,1436.00 613.98,1434.66 615.58,1433.03 C617.19,1431.39 619.40,1430.02 620.50,1429.99 C621.60,1429.95 623.60,1428.58 624.95,1426.96 C626.30,1425.33 628.24,1424.00 629.25,1424.00 C630.27,1424.00 632.09,1422.94 633.30,1421.64 C634.51,1420.34 636.55,1418.95 637.84,1418.54 C639.13,1418.14 641.77,1416.05 643.71,1413.90 C645.65,1411.76 648.00,1410.00 648.93,1410.00 C649.86,1410.00 651.92,1408.65 653.50,1407.00 C655.08,1405.35 657.11,1404.00 658.00,1404.00 C658.89,1404.00 660.92,1402.65 662.50,1401.00 C664.08,1399.35 666.11,1398.00 667.00,1398.00 C667.89,1398.00 669.92,1396.65 671.50,1395.00 C673.08,1393.35 675.11,1392.00 676.00,1392.00 C676.89,1392.00 678.92,1390.65 680.50,1389.00 C682.08,1387.35 684.10,1386.00 684.98,1386.00 C685.86,1386.00 688.57,1383.97 691.00,1381.50 C693.43,1379.03 696.13,1377.00 697.00,1377.00 C697.87,1377.00 700.57,1374.97 703.00,1372.50 C705.43,1370.03 708.14,1368.00 709.02,1368.00 C709.90,1368.00 711.92,1366.65 713.50,1365.00 C715.08,1363.35 717.10,1362.00 717.98,1362.00 C718.86,1362.00 721.57,1359.97 724.00,1357.50 C726.43,1355.03 729.14,1353.00 730.02,1353.00 C730.90,1353.00 732.92,1351.65 734.50,1350.00 C736.08,1348.35 738.10,1347.00 738.98,1347.00 C739.86,1347.00 742.57,1344.97 745.00,1342.50 C747.43,1340.03 750.14,1338.00 751.02,1338.00 C751.90,1338.00 753.92,1336.65 755.50,1335.00 C757.08,1333.35 759.10,1332.00 759.98,1332.00 C760.86,1332.00 763.57,1329.97 766.00,1327.50 C768.43,1325.03 771.14,1323.00 772.02,1323.00 C772.90,1323.00 774.92,1321.65 776.50,1320.00 C778.08,1318.35 780.10,1317.00 780.98,1317.00 C781.86,1317.00 784.57,1314.97 787.00,1312.50 C789.43,1310.03 792.14,1308.00 793.02,1308.00 C793.90,1308.00 795.92,1306.65 797.50,1305.00 C799.08,1303.35 801.10,1302.00 801.98,1302.00 C802.86,1302.00 805.57,1299.97 808.00,1297.50 C810.43,1295.03 813.13,1293.00 814.00,1293.00 C814.87,1293.00 817.57,1290.97 820.00,1288.50 C822.43,1286.03 825.14,1284.00 826.02,1284.00 C826.90,1284.00 828.92,1282.65 830.50,1281.00 C832.08,1279.35 834.09,1278.00 834.97,1278.00 C835.85,1278.00 839.01,1275.53 842.00,1272.50 C844.99,1269.47 848.15,1267.00 849.03,1267.00 C849.91,1267.00 851.92,1265.65 853.50,1264.00 C855.08,1262.35 857.09,1261.00 857.97,1261.00 C858.85,1261.00 862.23,1258.30 865.50,1255.00 C868.77,1251.70 872.15,1249.00 873.01,1249.00 C873.88,1249.00 876.57,1246.97 879.00,1244.50 C881.43,1242.03 884.13,1240.00 885.00,1240.00 C885.87,1240.00 888.57,1237.97 891.00,1235.50 C893.43,1233.03 896.12,1231.00 896.99,1231.00 C897.85,1231.00 901.23,1228.30 904.50,1225.00 C907.77,1221.70 911.14,1219.00 912.00,1219.00 C912.86,1219.00 916.23,1216.30 919.50,1213.00 C922.77,1209.70 926.15,1207.00 927.01,1207.00 C927.88,1207.00 930.57,1204.97 933.00,1202.50 C935.43,1200.03 938.12,1198.00 938.98,1198.00 C939.84,1198.00 943.90,1194.62 948.00,1190.50 C952.10,1186.38 956.15,1183.00 957.00,1183.00 C957.85,1183.00 962.57,1178.95 967.50,1174.00 C972.43,1169.05 977.15,1165.00 978.00,1165.00 C978.84,1165.00 984.24,1160.28 990.00,1154.50 C995.76,1148.72 1001.15,1144.00 1002.00,1144.00 C1002.84,1144.00 1010.04,1137.47 1018.00,1129.50 C1025.96,1121.53 1033.16,1115.00 1033.99,1115.00 C1035.99,1115.00 1103.00,1047.95 1103.00,1045.95 C1103.00,1045.11 1105.03,1042.43 1107.50,1040.00 C1109.97,1037.57 1112.00,1034.86 1112.00,1033.98 C1112.00,1033.10 1113.35,1031.08 1115.00,1029.50 C1116.65,1027.92 1118.00,1025.89 1118.00,1025.00 C1118.00,1024.11 1119.35,1022.08 1121.00,1020.50 C1122.65,1018.92 1124.00,1016.87 1124.00,1015.94 C1124.00,1015.01 1124.67,1013.68 1125.50,1013.00 C1126.33,1012.32 1127.00,1010.97 1127.00,1010.00 C1127.00,1009.03 1127.67,1007.68 1128.50,1007.00 C1129.33,1006.32 1130.00,1004.97 1130.00,1004.00 C1130.00,1003.03 1130.67,1001.68 1131.50,1001.00 C1132.33,1000.32 1133.00,998.97 1133.00,998.00 C1133.00,997.03 1133.67,995.68 1134.50,995.00 C1135.33,994.32 1136.00,992.97 1136.00,992.00 C1136.00,991.03 1136.67,989.68 1137.50,989.00 C1138.33,988.32 1139.00,986.97 1139.00,986.00 C1139.00,985.03 1139.71,983.65 1140.59,982.93 C1141.63,982.06 1141.99,980.69 1141.63,978.92 C1141.25,976.99 1141.68,975.69 1143.15,974.36 C1144.79,972.88 1145.11,971.66 1144.73,968.29 C1144.36,964.97 1144.67,963.70 1146.23,962.29 C1147.81,960.86 1148.09,959.68 1147.64,956.38 C1147.19,953.07 1147.47,951.89 1149.04,950.47 C1152.04,947.75 1152.08,896.37 1149.08,893.80 C1147.60,892.54 1147.28,891.29 1147.68,888.33 C1148.07,885.39 1147.70,883.95 1146.11,882.11 C1144.77,880.57 1144.23,878.94 1144.59,877.51 C1144.92,876.18 1144.51,874.66 1143.57,873.72 C1142.71,872.85 1142.00,870.82 1142.00,869.19 C1142.00,867.57 1141.33,865.68 1140.50,865.00 C1139.67,864.32 1139.00,862.99 1139.00,862.06 C1139.00,861.13 1137.65,859.08 1136.00,857.50 C1134.35,855.92 1133.00,853.89 1133.00,853.00 C1133.00,852.11 1131.65,850.08 1130.00,848.50 C1128.35,846.92 1127.00,844.92 1127.00,844.05 C1127.00,842.01 1104.96,820.00 1102.92,820.00 C1102.07,820.00 1100.08,818.65 1098.50,817.00 C1096.92,815.35 1094.87,814.00 1093.94,814.00 C1093.01,814.00 1091.68,813.33 1091.00,812.50 C1090.32,811.68 1088.97,811.00 1088.00,811.00 C1087.03,811.00 1085.68,810.32 1085.00,809.50 C1084.32,808.67 1082.97,808.00 1082.00,808.00 C1081.03,808.00 1079.68,807.32 1079.00,806.50 C1078.32,805.67 1076.97,805.00 1076.00,805.00 C1075.03,805.00 1073.68,804.32 1073.00,803.50 C1072.32,802.67 1070.97,802.00 1070.00,802.00 C1069.03,802.00 1067.68,801.33 1067.00,800.50 C1066.32,799.68 1064.97,799.00 1064.00,799.00 C1063.03,799.00 1061.68,798.33 1061.00,797.50 C1060.21,796.55 1058.01,796.00 1055.00,796.00 C1051.99,796.00 1049.79,795.45 1049.00,794.50 C1048.21,793.55 1046.01,793.00 1043.00,793.00 C1039.99,793.00 1037.79,792.45 1037.00,791.50 C1035.96,790.24 1031.84,790.00 1011.50,790.00 C991.16,790.00 987.04,790.24 986.00,791.50 C985.32,792.32 983.29,793.00 981.50,793.00 C979.71,793.00 977.68,793.68 977.00,794.50 C976.32,795.33 974.97,796.00 974.00,796.00 C973.03,796.00 971.68,796.68 971.00,797.50 C970.32,798.33 968.95,799.00 967.96,799.00 C966.98,799.00 964.39,801.02 962.21,803.50 C960.03,805.97 957.51,808.00 956.60,808.00 C955.70,808.00 952.46,810.45 949.42,813.45 C946.37,816.45 942.92,819.21 941.76,819.58 C940.60,819.95 935.83,824.02 931.17,828.62 C926.51,833.23 922.05,837.00 921.26,837.00 C920.46,837.00 917.09,839.70 913.76,843.00 C910.43,846.30 907.05,849.00 906.26,849.00 C905.46,849.00 902.09,851.70 898.76,855.00 C895.43,858.30 891.98,861.01 891.10,861.03 C890.22,861.04 888.19,862.39 886.58,864.03 C884.98,865.66 883.02,867.00 882.23,867.00 C881.44,867.00 878.75,869.02 876.23,871.50 C873.72,873.98 870.96,876.01 870.09,876.03 C869.21,876.04 867.19,877.39 865.58,879.03 C863.98,880.66 862.14,882.00 861.50,882.00 C860.86,882.00 859.02,883.34 857.42,884.97 C855.81,886.61 853.77,887.96 852.87,887.97 C851.98,887.99 850.68,888.67 850.00,889.50 C849.32,890.33 847.97,891.00 847.00,891.00 C846.03,891.00 844.68,891.67 844.00,892.50 C843.32,893.33 841.97,894.00 841.00,894.00 C840.03,894.00 838.68,894.67 838.00,895.50 C837.32,896.32 835.29,897.00 833.50,897.00 C831.71,897.00 829.68,897.67 829.00,898.50 C827.19,900.69 803.81,900.69 802.00,898.50 C801.32,897.67 799.97,897.00 799.00,897.00 C798.03,897.00 796.68,896.32 796.00,895.50 C795.32,894.67 794.01,894.00 793.10,894.00 C789.95,894.00 778.00,880.82 778.00,877.35 C778.00,875.64 777.33,873.68 776.50,873.00 C775.40,872.09 775.00,869.67 775.00,864.00 C775.00,858.33 775.40,855.91 776.50,855.00 C777.33,854.32 778.00,852.29 778.00,850.50 C778.00,848.71 778.67,846.68 779.50,846.00 C780.33,845.32 781.00,843.97 781.00,843.00 C781.00,842.03 781.67,840.68 782.50,840.00 C783.33,839.32 784.00,837.97 784.00,837.00 C784.00,836.03 784.67,834.68 785.50,834.00 C786.33,833.32 787.00,831.97 787.00,831.00 C787.00,830.03 787.67,828.68 788.50,828.00 C789.33,827.32 790.00,825.99 790.00,825.06 C790.00,824.13 791.35,822.08 793.00,820.50 C794.65,818.92 796.00,816.89 796.00,816.00 C796.00,815.11 797.35,813.08 799.00,811.50 C800.65,809.92 802.00,807.90 802.00,807.02 C802.00,806.14 804.02,803.43 806.50,801.00 C808.98,798.57 811.00,796.07 811.00,795.44 C811.00,794.81 813.02,792.21 815.50,789.66 C817.98,787.11 820.00,784.41 820.00,783.66 C820.00,782.91 822.03,780.21 824.50,777.66 C826.98,775.11 829.00,772.42 829.00,771.68 C829.00,770.94 831.02,768.28 833.50,765.77 C835.97,763.25 838.00,760.47 838.00,759.58 C838.00,758.69 840.02,756.03 842.50,753.65 C844.98,751.28 847.00,748.59 847.00,747.67 C847.00,746.75 848.80,744.25 851.00,742.12 C853.20,739.98 855.00,737.49 855.00,736.59 C855.00,735.69 857.02,732.92 859.50,730.45 C861.98,727.97 864.00,725.25 864.00,724.40 C864.00,723.54 865.35,721.50 867.00,719.85 C868.65,718.20 870.00,716.15 870.00,715.30 C870.00,714.45 872.02,711.97 874.50,709.79 C876.98,707.61 879.00,705.05 879.00,704.10 C879.00,703.15 880.35,701.08 882.00,699.50 C883.65,697.92 885.00,695.89 885.00,695.00 C885.00,694.11 886.35,692.08 888.00,690.50 C889.65,688.92 891.00,686.90 891.00,686.02 C891.00,685.14 893.02,682.43 895.50,680.00 C897.98,677.57 900.00,674.87 900.00,674.00 C900.00,673.13 902.02,670.43 904.50,668.00 C906.98,665.57 909.00,662.86 909.00,661.98 C909.00,661.10 910.35,659.08 912.00,657.50 C913.65,655.92 915.00,653.89 915.00,653.00 C915.00,652.11 916.35,650.08 918.00,648.50 C919.65,646.92 921.00,644.89 921.00,644.00 C921.00,643.11 922.35,641.08 924.00,639.50 C925.65,637.92 927.00,635.90 927.00,635.02 C927.00,634.14 929.02,631.43 931.50,629.00 C933.98,626.57 936.00,623.86 936.00,622.98 C936.00,622.10 937.35,620.08 939.00,618.50 C940.65,616.92 942.00,614.89 942.00,614.00 C942.00,613.11 943.35,611.08 945.00,609.50 C946.65,607.92 948.00,605.89 948.00,605.00 C948.00,604.11 949.35,602.08 951.00,600.50 C952.65,598.92 954.00,596.89 954.00,596.00 C954.00,595.11 955.35,593.08 957.00,591.50 C958.65,589.92 960.00,587.89 960.00,587.00 C960.00,586.11 961.35,584.08 963.00,582.50 C964.65,580.92 966.00,578.87 966.00,577.94 C966.00,577.01 966.67,575.68 967.50,575.00 C968.33,574.32 969.00,572.99 969.00,572.06 C969.00,571.13 970.35,569.08 972.00,567.50 C973.65,565.92 975.00,563.87 975.00,562.94 C975.00,562.01 975.67,560.68 976.50,560.00 C977.33,559.32 978.00,557.99 978.00,557.06 C978.00,556.13 979.35,554.08 981.00,552.50 C982.65,550.92 984.00,548.87 984.00,547.94 C984.00,547.01 984.67,545.68 985.50,545.00 C986.33,544.32 987.00,542.97 987.00,542.00 C987.00,541.03 987.67,539.68 988.50,539.00 C989.33,538.32 990.00,536.97 990.00,536.00 C990.00,535.03 990.67,533.68 991.50,533.00 C992.33,532.32 993.00,530.97 993.00,530.00 C993.00,529.03 993.67,527.68 994.50,527.00 C995.33,526.32 996.00,524.97 996.00,524.00 C996.00,523.03 996.67,521.68 997.50,521.00 C998.33,520.32 999.00,518.99 999.00,518.06 C999.00,517.13 1000.33,515.10 1001.95,513.55 C1004.22,511.37 1004.77,510.12 1004.36,508.06 C1004.01,506.31 1004.38,504.93 1005.41,504.07 C1006.29,503.35 1007.00,501.97 1007.00,501.00 C1007.00,500.03 1007.67,498.68 1008.50,498.00 C1009.33,497.32 1010.00,495.97 1010.00,495.00 C1010.00,494.03 1010.67,492.68 1011.50,492.00 C1012.33,491.32 1013.00,489.97 1013.00,489.00 C1013.00,488.03 1013.67,486.68 1014.50,486.00 C1015.33,485.32 1016.00,483.29 1016.00,481.50 C1016.00,479.71 1016.67,477.68 1017.50,477.00 C1018.33,476.32 1019.00,474.97 1019.00,474.00 C1019.00,473.03 1019.67,471.68 1020.50,471.00 C1021.33,470.32 1022.00,468.29 1022.00,466.50 C1022.00,464.71 1022.67,462.68 1023.50,462.00 C1024.33,461.32 1025.00,459.29 1025.00,457.50 C1025.00,455.71 1025.67,453.68 1026.50,453.00 C1027.33,452.32 1028.00,450.29 1028.00,448.50 C1028.00,446.71 1028.67,444.68 1029.50,444.00 C1030.33,443.32 1031.00,441.29 1031.00,439.50 C1031.00,437.71 1031.67,435.68 1032.50,435.00 C1033.33,434.32 1034.00,432.29 1034.00,430.50 C1034.00,428.71 1034.67,426.68 1035.50,426.00 C1036.45,425.21 1037.00,423.01 1037.00,420.00 C1037.00,416.99 1037.55,414.79 1038.50,414.00 C1039.45,413.21 1040.00,411.01 1040.00,408.00 C1040.00,404.99 1040.55,402.79 1041.50,402.00 C1042.62,401.07 1043.00,398.56 1043.00,392.00 C1043.00,385.44 1043.38,382.93 1044.50,382.00 C1046.74,380.14 1046.74,329.86 1044.50,328.00 C1043.55,327.21 1043.00,325.01 1043.00,322.00 C1043.00,318.99 1042.45,316.79 1041.50,316.00 C1040.67,315.32 1040.00,313.97 1040.00,313.00 C1040.00,312.03 1039.33,310.68 1038.50,310.00 C1037.67,309.32 1037.00,308.00 1037.00,307.08 C1037.00,304.97 1029.96,298.00 1027.83,298.00 C1026.96,298.00 1025.68,297.32 1025.00,296.50 C1024.32,295.67 1022.97,295.00 1022.00,295.00 C1021.03,295.00 1019.68,294.33 1019.00,293.50 C1017.15,291.27 973.85,291.27 972.00,293.50 C971.14,294.54 968.84,295.00 964.50,295.00 C960.16,295.00 957.86,295.46 957.00,296.50 C956.21,297.45 954.01,298.00 951.00,298.00 C947.99,298.00 945.79,298.55 945.00,299.50 C944.21,300.45 942.01,301.00 939.00,301.00 C935.99,301.00 933.79,301.55 933.00,302.50 C932.32,303.32 930.29,304.00 928.50,304.00 C926.71,304.00 924.68,304.68 924.00,305.50 C923.32,306.33 921.29,307.00 919.50,307.00 C917.71,307.00 915.68,307.68 915.00,308.50 C914.32,309.32 912.97,310.00 912.00,310.00 C911.03,310.00 909.68,310.68 909.00,311.50 C908.32,312.33 906.29,313.00 904.50,313.00 C902.71,313.00 900.68,313.68 900.00,314.50 C899.32,315.32 897.29,316.00 895.50,316.00 C893.71,316.00 891.68,316.68 891.00,317.50 C890.32,318.32 888.97,319.00 888.00,319.00 C887.03,319.00 885.68,319.67 885.00,320.50 C884.32,321.32 882.97,322.00 882.00,322.00 C881.03,322.00 879.68,322.68 879.00,323.50 C878.32,324.32 876.97,325.00 876.00,325.00 C875.03,325.00 873.68,325.68 873.00,326.50 C872.32,327.32 870.97,328.00 870.00,328.00 C869.03,328.00 867.68,328.68 867.00,329.50 C866.32,330.32 864.97,331.00 864.00,331.00 C863.03,331.00 861.68,331.68 861.00,332.50 C860.32,333.32 858.97,334.00 858.00,334.00 C857.03,334.00 855.68,334.68 855.00,335.50 C854.32,336.32 852.97,337.00 852.00,337.00 C851.03,337.00 849.68,337.67 849.00,338.50 C848.32,339.32 846.99,340.00 846.06,340.00 C845.13,340.00 843.08,341.35 841.50,343.00 C839.92,344.65 837.90,346.00 837.02,346.00 C836.14,346.00 833.43,348.02 831.00,350.50 C828.57,352.97 825.88,355.00 825.01,355.00 C824.15,355.00 820.77,357.70 817.50,361.00 C814.23,364.30 810.87,367.00 810.02,367.00 C808.00,367.00 781.00,394.05 781.00,396.08 C781.00,396.93 779.65,398.92 778.00,400.50 C776.35,402.08 775.00,404.11 775.00,405.00 C775.00,405.89 773.65,407.92 772.00,409.50 C770.35,411.08 769.00,413.13 769.00,414.06 C769.00,414.99 768.33,416.32 767.50,417.00 C766.67,417.68 766.00,419.01 766.00,419.94 C766.00,420.87 764.65,422.92 763.00,424.50 C760.89,426.52 760.00,428.33 760.00,430.56 C760.00,432.32 759.33,434.32 758.50,435.00 C757.68,435.68 757.00,437.03 757.00,438.00 C757.00,438.97 756.33,440.32 755.50,441.00 C754.55,441.79 754.00,443.99 754.00,447.00 C754.00,450.01 753.45,452.21 752.50,453.00 C751.22,454.06 751.00,459.16 751.00,487.50 C751.00,515.84 750.78,520.94 749.50,522.00 C748.68,522.68 748.00,524.03 748.00,525.00 C748.00,525.97 747.33,527.32 746.50,528.00 C745.68,528.68 745.00,529.99 745.00,530.91 C745.00,533.39 735.83,542.00 733.18,542.00 C731.95,542.00 730.68,542.67 730.36,543.50 C730.01,544.41 728.50,545.00 726.52,545.00 C724.72,545.00 722.68,545.68 722.00,546.50 C720.25,548.60 707.75,548.60 706.00,546.50 C705.32,545.68 703.29,545.00 701.50,545.00 C699.71,545.00 697.68,544.32 697.00,543.50 C696.32,542.67 694.97,542.00 694.00,542.00 C693.03,542.00 691.68,541.33 691.00,540.50 C690.32,539.68 689.00,539.00 688.09,539.00 C687.17,539.00 684.43,536.98 682.00,534.50 C679.57,532.02 676.87,530.00 676.01,530.00 C675.14,530.00 671.99,527.53 669.00,524.50 C666.01,521.48 662.87,519.00 662.02,519.00 C660.00,519.00 632.00,490.95 632.00,488.92 C632.00,488.07 630.65,486.08 629.00,484.50 C627.35,482.92 626.00,480.87 626.00,479.94 C626.00,479.01 625.33,477.68 624.50,477.00 C623.67,476.32 623.00,474.97 623.00,474.00 C623.00,473.03 622.33,471.68 621.50,471.00 C620.67,470.32 620.00,468.29 620.00,466.50 C620.00,464.71 619.33,462.68 618.50,462.00 C617.55,461.21 617.00,459.01 617.00,456.00 C617.00,452.99 616.45,450.79 615.50,450.00 C614.28,448.98 614.00,445.67 614.00,432.00 C614.00,418.33 614.28,415.02 615.50,414.00 C616.54,413.14 617.00,410.84 617.00,406.50 C617.00,402.16 617.46,399.86 618.50,399.00 C619.45,398.21 620.00,396.01 620.00,393.00 C620.00,389.99 620.55,387.79 621.50,387.00 C622.33,386.32 623.00,384.29 623.00,382.50 C623.00,380.71 623.68,378.68 624.50,378.00 C625.33,377.32 626.00,375.97 626.00,375.00 C626.00,374.03 626.68,372.68 627.50,372.00 C628.33,371.32 629.00,369.52 629.00,368.00 C629.00,366.48 629.67,364.68 630.50,364.00 C631.33,363.32 632.00,361.97 632.00,361.00 C632.00,360.03 632.67,358.68 633.50,358.00 C634.33,357.32 635.00,355.97 635.00,355.00 C635.00,354.03 635.68,352.68 636.50,352.00 C637.33,351.32 638.00,349.99 638.00,349.04 C638.00,348.10 639.34,346.02 640.97,344.42 C642.61,342.81 643.96,340.77 643.97,339.87 C643.99,338.98 644.67,337.68 645.50,337.00 C646.32,336.32 647.00,334.99 647.00,334.04 C647.00,333.10 648.34,331.02 649.97,329.42 C651.61,327.81 652.96,325.79 652.97,324.92 C652.99,324.05 654.34,322.02 655.97,320.42 C657.61,318.81 658.96,316.79 658.97,315.92 C658.99,315.05 660.34,313.02 661.97,311.42 C663.61,309.81 664.96,307.81 664.97,306.96 C664.99,306.11 667.03,303.43 669.50,301.00 C671.98,298.57 674.00,295.88 674.00,295.02 C674.00,294.16 677.38,290.10 681.50,286.00 C685.62,281.90 689.00,277.86 689.00,277.01 C689.00,275.02 714.05,250.00 716.04,250.00 C716.87,250.00 720.90,246.62 725.00,242.50 C729.10,238.37 733.15,235.00 734.01,235.00 C734.87,235.00 738.01,232.53 741.00,229.50 C743.99,226.48 747.19,224.00 748.13,224.00 C749.06,224.00 750.96,222.65 752.35,221.00 C753.73,219.35 755.69,217.99 756.69,217.97 C757.68,217.96 759.81,216.61 761.42,214.97 C763.02,213.34 765.05,211.99 765.92,211.97 C766.79,211.96 768.81,210.61 770.42,208.97 C772.02,207.34 774.05,205.99 774.92,205.97 C775.79,205.96 777.81,204.61 779.42,202.97 C781.02,201.34 783.10,200.00 784.04,200.00 C784.99,200.00 786.32,199.32 787.00,198.50 C787.68,197.68 789.03,197.00 790.00,197.00 C790.97,197.00 792.32,196.32 793.00,195.50 C793.68,194.67 795.03,194.00 796.00,194.00 C796.97,194.00 798.32,193.32 799.00,192.50 C799.68,191.67 800.98,190.99 801.87,190.97 C802.77,190.96 804.81,189.61 806.42,187.97 C808.02,186.34 810.10,185.00 811.04,185.00 C811.99,185.00 813.32,184.32 814.00,183.50 C814.68,182.67 816.03,182.00 817.00,182.00 C817.97,182.00 819.32,181.32 820.00,180.50 C820.68,179.67 822.03,179.00 823.00,179.00 C823.97,179.00 825.32,178.32 826.00,177.50 C826.68,176.67 827.81,176.00 828.50,176.00 C829.19,176.00 830.32,175.32 831.00,174.50 C831.68,173.68 833.71,173.00 835.50,173.00 C837.29,173.00 839.32,172.33 840.00,171.50 C840.68,170.68 842.03,170.00 843.00,170.00 C843.97,170.00 845.32,169.33 846.00,168.50 C846.68,167.68 848.03,167.00 849.00,167.00 C849.97,167.00 851.32,166.32 852.00,165.50 C852.68,164.68 854.71,164.00 856.50,164.00 C858.29,164.00 860.32,163.32 861.00,162.50 C861.68,161.68 863.03,161.00 864.00,161.00 C864.97,161.00 866.32,160.32 867.00,159.50 C867.68,158.68 869.71,158.00 871.50,158.00 C873.29,158.00 875.32,157.32 876.00,156.50 C876.68,155.68 878.03,155.00 879.00,155.00 C879.97,155.00 881.32,154.32 882.00,153.50 C882.68,152.68 884.71,152.00 886.50,152.00 C888.29,152.00 890.32,151.32 891.00,150.50 C891.68,149.67 893.71,149.00 895.50,149.00 C897.29,149.00 899.32,148.32 900.00,147.50 C900.68,146.67 902.71,146.00 904.50,146.00 C906.29,146.00 908.32,145.32 909.00,144.50 C909.68,143.67 911.71,143.00 913.50,143.00 C915.29,143.00 917.32,142.32 918.00,141.50 C918.79,140.55 920.99,140.00 924.00,140.00 C927.01,140.00 929.21,139.45 930.00,138.50 C930.79,137.55 932.99,137.00 936.00,137.00 C939.01,137.00 941.21,136.45 942.00,135.50 C942.79,134.55 944.99,134.00 948.00,134.00 C951.01,134.00 953.21,133.45 954.00,132.50 C954.79,131.55 956.99,131.00 960.00,131.00 C963.01,131.00 965.21,130.45 966.00,129.50 C966.86,128.46 969.16,128.00 973.50,128.00 C977.84,128.00 980.14,127.54 981.00,126.50 C981.91,125.40 984.33,125.00 990.00,125.00 C995.67,125.00 998.09,124.60 999.00,123.50 C999.98,122.32 1002.77,122.00 1012.00,122.00 C1021.23,122.00 1024.02,121.68 1025.00,120.50 C1026.87,118.24 1110.13,118.24 1112.00,120.50 C1112.86,121.54 1115.16,122.00 1119.50,122.00 C1123.84,122.00 1126.14,122.46 1127.00,123.50 C1127.68,124.33 1129.03,125.00 1130.00,125.00 C1130.97,125.00 1132.32,125.67 1133.00,126.50 C1133.68,127.33 1135.03,128.00 1136.00,128.00 C1136.97,128.00 1138.32,128.67 1139.00,129.50 C1139.68,130.32 1140.81,131.00 1141.50,131.00 C1142.19,131.00 1143.32,131.67 1144.00,132.50 C1144.68,133.32 1146.04,134.00 1147.02,134.00 C1149.23,134.00 1176.99,161.61 1177.03,163.86 C1177.04,164.76 1178.39,166.81 1180.03,168.42 C1181.66,170.02 1183.00,172.10 1183.00,173.04 C1183.00,173.99 1183.67,175.32 1184.50,176.00 C1185.33,176.68 1186.01,177.98 1186.03,178.87 C1186.04,179.77 1187.39,181.81 1189.03,183.42 C1190.66,185.02 1192.00,187.10 1192.00,188.04 C1192.00,188.99 1192.67,190.32 1193.50,191.00 C1194.33,191.68 1195.00,193.71 1195.00,195.50 C1195.00,197.29 1195.67,199.32 1196.50,200.00 C1197.33,200.68 1198.00,202.48 1198.00,204.00 C1198.00,205.52 1198.67,207.32 1199.50,208.00 C1200.33,208.68 1201.00,210.71 1201.00,212.50 C1201.00,214.29 1201.67,216.32 1202.50,217.00 C1203.32,217.68 1204.00,219.71 1204.00,221.50 C1204.00,223.29 1204.67,225.32 1205.50,226.00 C1206.45,226.79 1207.00,228.99 1207.00,232.00 C1207.00,235.01 1207.55,237.21 1208.50,238.00 C1209.54,238.86 1210.00,241.16 1210.00,245.50 C1210.00,249.84 1210.46,252.14 1211.50,253.00 C1212.64,253.94 1213.00,256.49 1213.00,263.50 C1213.00,270.51 1213.36,273.06 1214.50,274.00 C1216.75,275.87 1216.75,350.13 1214.50,352.00 C1213.36,352.94 1213.00,355.49 1213.00,362.50 C1213.00,369.51 1212.64,372.06 1211.50,373.00 C1210.42,373.90 1210.00,376.27 1210.00,381.50 C1210.00,386.73 1209.58,389.10 1208.50,390.00 C1207.46,390.86 1207.00,393.16 1207.00,397.50 C1207.00,401.84 1206.54,404.14 1205.50,405.00 C1204.46,405.86 1204.00,408.16 1204.00,412.50 C1204.00,416.84 1203.54,419.14 1202.50,420.00 C1201.67,420.68 1201.00,422.71 1201.00,424.50 C1201.00,426.29 1200.33,428.32 1199.50,429.00 C1198.55,429.79 1198.00,431.99 1198.00,435.00 C1198.00,438.01 1197.45,440.21 1196.50,441.00 C1195.55,441.79 1195.00,443.99 1195.00,447.00 C1195.00,450.01 1194.45,452.21 1193.50,453.00 C1192.67,453.68 1192.00,455.71 1192.00,457.50 C1192.00,459.29 1191.33,461.32 1190.50,462.00 C1189.67,462.68 1189.00,464.71 1189.00,466.50 C1189.00,468.29 1188.33,470.32 1187.50,471.00 C1186.67,471.68 1186.00,473.71 1186.00,475.50 C1186.00,477.29 1185.33,479.32 1184.50,480.00 C1183.67,480.68 1183.00,482.03 1183.00,483.00 C1183.00,483.97 1182.33,485.32 1181.50,486.00 C1180.67,486.68 1180.00,488.71 1180.00,490.50 C1180.00,492.29 1179.33,494.32 1178.50,495.00 C1177.67,495.68 1177.00,497.71 1177.00,499.50 C1177.00,501.29 1176.33,503.32 1175.50,504.00 C1174.67,504.68 1174.00,506.03 1174.00,507.00 C1174.00,507.97 1173.33,509.32 1172.50,510.00 C1171.67,510.68 1171.00,512.03 1171.00,513.00 C1171.00,513.97 1170.29,515.35 1169.41,516.07 C1168.37,516.94 1168.01,518.31 1168.37,520.08 C1168.75,521.98 1168.33,523.30 1166.95,524.54 C1165.88,525.51 1165.00,527.09 1165.00,528.03 C1165.00,528.98 1164.33,530.32 1163.50,531.00 C1162.67,531.68 1162.00,533.03 1162.00,534.00 C1162.00,534.97 1161.33,536.32 1160.50,537.00 C1159.67,537.68 1159.00,539.06 1159.00,540.06 C1159.00,541.06 1158.55,542.16 1158.00,542.50 C1157.45,542.84 1157.00,543.94 1157.00,544.94 C1157.00,545.94 1156.33,547.32 1155.50,548.00 C1154.67,548.68 1154.00,550.03 1154.00,551.00 C1154.00,551.97 1153.33,553.32 1152.50,554.00 C1151.67,554.68 1151.00,556.03 1151.00,557.00 C1151.00,557.97 1150.33,559.32 1149.50,560.00 C1148.67,560.68 1148.00,562.03 1148.00,563.00 C1148.00,563.97 1147.33,565.32 1146.50,566.00 C1145.67,566.68 1145.00,568.03 1145.00,569.00 C1145.00,569.97 1144.33,571.32 1143.50,572.00 C1142.67,572.68 1142.00,574.03 1142.00,575.00 C1142.00,575.97 1141.33,577.32 1140.50,578.00 C1139.67,578.68 1139.00,580.01 1139.00,580.94 C1139.00,581.87 1137.65,583.92 1136.00,585.50 C1134.35,587.08 1133.00,589.13 1133.00,590.06 C1133.00,590.99 1132.33,592.32 1131.50,593.00 C1130.67,593.68 1130.00,595.01 1130.00,595.94 C1130.00,596.87 1128.65,598.92 1127.00,600.50 C1125.35,602.08 1124.00,604.11 1124.00,605.00 C1124.00,605.89 1122.65,607.92 1121.00,609.50 C1119.35,611.08 1117.99,613.08 1117.97,613.94 C1117.96,614.80 1116.61,616.81 1114.97,618.42 C1113.34,620.02 1111.99,622.05 1111.97,622.92 C1111.96,623.79 1110.61,625.81 1108.97,627.42 C1107.34,629.02 1105.99,631.05 1105.97,631.92 C1105.96,632.79 1104.61,634.81 1102.97,636.42 C1101.34,638.02 1100.00,639.98 1100.00,640.77 C1100.00,641.56 1097.97,644.25 1095.50,646.77 C1093.03,649.28 1091.00,651.98 1091.00,652.77 C1091.00,653.55 1088.97,656.25 1086.50,658.77 C1084.03,661.28 1082.00,663.78 1082.00,664.34 C1082.00,664.89 1081.28,666.14 1080.40,667.11 C1077.92,669.85 1079.64,671.30 1084.70,670.73 C1088.25,670.33 1089.50,670.63 1090.98,672.21 C1092.55,673.89 1093.88,674.14 1099.83,673.86 C1105.22,673.62 1107.26,673.92 1108.67,675.17 C1110.06,676.40 1111.77,676.66 1115.80,676.26 C1120.30,675.82 1121.44,676.06 1123.42,677.92 C1125.05,679.46 1126.45,679.92 1128.16,679.50 C1129.87,679.07 1131.13,679.48 1132.41,680.90 C1133.70,682.32 1135.01,682.75 1136.92,682.37 C1138.69,682.01 1140.06,682.37 1140.93,683.41 C1141.65,684.29 1143.02,685.00 1143.97,685.00 C1144.91,685.00 1146.49,685.88 1147.46,686.95 C1148.70,688.33 1150.02,688.75 1151.92,688.37 C1153.69,688.01 1155.06,688.37 1155.93,689.41 C1156.65,690.29 1158.03,691.00 1159.00,691.00 C1159.97,691.00 1161.32,691.68 1162.00,692.50 C1162.68,693.33 1164.01,694.00 1164.94,694.00 C1165.87,694.00 1167.92,695.35 1169.50,697.00 C1171.08,698.65 1173.13,700.00 1174.06,700.00 C1174.99,700.00 1176.32,700.68 1177.00,701.50 C1177.68,702.33 1179.01,703.00 1179.94,703.00 C1180.87,703.00 1182.92,704.35 1184.50,706.00 C1186.08,707.65 1188.11,709.00 1189.00,709.00 C1189.89,709.00 1191.92,710.35 1193.50,712.00 C1195.08,713.65 1197.09,715.00 1197.97,715.00 C1198.85,715.00 1202.23,717.70 1205.50,721.00 C1208.77,724.30 1212.13,727.00 1212.99,727.00 C1214.98,727.00 1237.00,749.05 1237.00,751.04 C1237.00,751.87 1240.38,755.90 1244.50,760.00 C1248.62,764.10 1252.00,768.16 1252.00,769.04 C1252.00,769.91 1253.35,771.92 1255.00,773.50 C1256.65,775.08 1258.00,777.11 1258.00,778.00 C1258.00,778.89 1259.35,780.92 1261.00,782.50 C1262.65,784.08 1264.00,786.13 1264.00,787.06 C1264.00,787.99 1264.68,789.32 1265.50,790.00 C1266.33,790.68 1267.00,792.03 1267.00,793.00 C1267.00,793.97 1267.67,795.32 1268.50,796.00 C1269.33,796.68 1270.00,798.03 1270.00,799.00 C1270.00,799.97 1270.67,801.32 1271.50,802.00 C1272.33,802.68 1273.00,804.03 1273.00,805.00 C1273.00,805.97 1273.67,807.32 1274.50,808.00 C1275.33,808.68 1276.00,810.03 1276.00,811.00 C1276.00,811.97 1276.67,813.32 1277.50,814.00 C1278.33,814.68 1279.00,816.03 1279.00,817.00 C1279.00,817.97 1279.67,819.32 1280.50,820.00 C1281.33,820.68 1282.00,822.71 1282.00,824.50 C1282.00,826.29 1282.67,828.32 1283.50,829.00 C1284.33,829.68 1285.00,831.71 1285.00,833.50 C1285.00,835.29 1285.67,837.32 1286.50,838.00 C1287.33,838.68 1288.00,840.71 1288.00,842.50 C1288.00,844.29 1288.68,846.32 1289.50,847.00 C1290.33,847.68 1291.00,849.71 1291.00,851.50 C1291.00,853.29 1291.67,855.32 1292.50,856.00 C1293.42,856.77 1294.00,858.96 1294.00,861.69 C1294.00,864.32 1294.62,866.76 1295.50,867.64 C1296.52,868.66 1297.00,871.18 1297.00,875.46 C1297.00,880.27 1297.37,881.93 1298.56,882.38 C1299.89,882.89 1300.09,885.11 1299.91,897.12 C1299.73,909.34 1299.93,911.38 1301.35,912.18 C1303.82,913.56 1303.82,944.44 1301.35,947.17 C1299.95,948.71 1299.73,951.12 1299.91,962.29 C1300.11,974.23 1299.94,975.75 1298.23,977.29 C1296.68,978.70 1296.42,980.00 1296.79,984.53 C1297.16,988.97 1296.88,990.47 1295.38,992.13 C1293.91,993.76 1293.57,995.42 1293.83,999.88 C1294.10,1004.56 1293.81,1005.87 1292.13,1007.39 C1290.68,1008.69 1290.25,1010.00 1290.63,1011.92 C1290.99,1013.69 1290.63,1015.06 1289.59,1015.93 C1288.71,1016.65 1288.00,1018.71 1288.00,1020.50 C1288.00,1022.29 1287.33,1024.32 1286.50,1025.00 C1285.67,1025.68 1285.00,1027.71 1285.00,1029.50 C1285.00,1031.29 1284.33,1033.32 1283.50,1034.00 C1282.67,1034.68 1282.00,1036.71 1282.00,1038.50 C1282.00,1040.29 1281.33,1042.32 1280.50,1043.00 C1279.67,1043.68 1279.00,1045.71 1279.00,1047.50 C1279.00,1049.29 1278.33,1051.32 1277.50,1052.00 C1276.67,1052.68 1276.00,1054.03 1276.00,1055.00 C1276.00,1055.97 1275.33,1057.32 1274.50,1058.00 C1273.67,1058.68 1273.00,1060.03 1273.00,1061.00 C1273.00,1061.97 1272.33,1063.32 1271.50,1064.00 C1270.67,1064.68 1270.00,1066.71 1270.00,1068.50 C1270.00,1070.29 1269.33,1072.32 1268.50,1073.00 C1267.67,1073.68 1267.00,1075.03 1267.00,1076.00 C1267.00,1076.97 1266.33,1078.32 1265.50,1079.00 C1264.67,1079.68 1263.99,1080.98 1263.97,1081.87 C1263.96,1082.77 1262.61,1084.81 1260.97,1086.42 C1259.34,1088.02 1258.00,1090.10 1258.00,1091.04 C1258.00,1091.99 1257.33,1093.32 1256.50,1094.00 C1255.67,1094.68 1255.00,1096.03 1255.00,1097.00 C1255.00,1097.97 1254.33,1099.32 1253.50,1100.00 C1252.67,1100.68 1251.99,1101.98 1251.97,1102.87 C1251.96,1103.77 1250.61,1105.81 1248.97,1107.42 C1247.34,1109.02 1245.99,1111.05 1245.97,1111.92 C1245.96,1112.79 1244.61,1114.81 1242.97,1116.42 C1241.34,1118.02 1240.00,1119.86 1240.00,1120.50 C1240.00,1121.14 1238.66,1122.98 1237.03,1124.58 C1235.39,1126.19 1234.04,1128.22 1234.03,1129.10 C1234.01,1129.98 1231.30,1133.43 1228.00,1136.76 C1224.70,1140.09 1222.00,1143.49 1222.00,1144.31 C1222.00,1146.27 1161.27,1207.00 1159.32,1207.00 C1158.50,1207.00 1154.43,1210.38 1150.27,1214.50 C1146.12,1218.62 1142.02,1222.00 1141.17,1222.00 C1140.31,1222.00 1137.05,1224.70 1133.92,1228.00 C1130.79,1231.30 1127.58,1234.00 1126.78,1234.00 C1125.98,1234.00 1123.28,1236.03 1120.77,1238.50 C1118.25,1240.97 1115.55,1243.00 1114.77,1243.00 C1113.98,1243.00 1111.28,1245.03 1108.77,1247.50 C1106.25,1249.97 1103.56,1252.00 1102.77,1252.00 C1101.98,1252.00 1100.02,1253.34 1098.42,1254.97 C1096.81,1256.61 1094.79,1257.96 1093.92,1257.97 C1093.05,1257.99 1091.02,1259.34 1089.42,1260.97 C1087.81,1262.61 1085.79,1263.96 1084.91,1263.97 C1084.04,1263.99 1081.28,1266.03 1078.77,1268.50 C1076.25,1270.97 1073.37,1273.02 1072.35,1273.04 C1071.33,1273.07 1069.40,1274.42 1068.05,1276.04 C1066.70,1277.67 1064.81,1279.00 1063.85,1279.00 C1062.89,1279.00 1060.89,1280.12 1059.41,1281.50 C1057.92,1282.88 1056.18,1284.00 1055.53,1284.00 C1054.89,1284.00 1052.85,1285.35 1051.00,1287.00 C1049.15,1288.65 1046.91,1290.00 1046.01,1290.00 C1045.11,1290.00 1043.38,1291.35 1042.16,1293.00 C1040.94,1294.65 1039.15,1296.00 1038.18,1296.00 C1037.21,1296.00 1034.43,1298.03 1032.00,1300.50 C1029.57,1302.97 1026.86,1305.00 1025.98,1305.00 C1025.10,1305.00 1023.08,1306.35 1021.50,1308.00 C1019.92,1309.65 1017.89,1311.00 1017.00,1311.00 C1016.11,1311.00 1014.08,1312.35 1012.50,1314.00 C1010.92,1315.65 1008.87,1317.00 1007.94,1317.00 C1007.01,1317.00 1005.68,1317.67 1005.00,1318.50 C1004.32,1319.33 1003.00,1320.00 1002.09,1320.00 C1001.17,1320.00 998.43,1322.03 996.00,1324.50 C993.57,1326.97 990.86,1329.00 989.98,1329.00 C989.10,1329.00 987.08,1330.35 985.50,1332.00 C983.92,1333.65 981.89,1335.00 981.00,1335.00 C980.11,1335.00 978.08,1336.35 976.50,1338.00 C974.92,1339.65 972.87,1341.00 971.94,1341.00 C971.01,1341.00 969.68,1341.67 969.00,1342.50 C968.32,1343.33 966.99,1344.00 966.06,1344.00 C965.13,1344.00 963.08,1345.35 961.50,1347.00 C959.92,1348.65 957.89,1350.00 957.00,1350.00 C956.11,1350.00 954.08,1351.35 952.50,1353.00 C950.92,1354.65 948.89,1356.00 948.00,1356.00 C947.11,1356.00 945.08,1357.35 943.50,1359.00 C941.92,1360.65 939.89,1362.00 939.00,1362.00 C938.11,1362.00 936.08,1363.35 934.50,1365.00 C932.92,1366.65 930.89,1368.00 930.00,1368.00 C929.11,1368.00 927.08,1369.35 925.50,1371.00 C923.92,1372.65 921.89,1374.00 921.00,1374.00 C920.11,1374.00 918.08,1375.35 916.50,1377.00 C914.92,1378.65 912.89,1380.00 912.00,1380.00 C911.11,1380.00 909.08,1381.35 907.50,1383.00 C905.92,1384.65 903.89,1386.00 903.00,1386.00 C902.11,1386.00 900.08,1387.35 898.50,1389.00 C896.92,1390.65 894.89,1392.00 894.00,1392.00 C893.11,1392.00 891.08,1393.35 889.50,1395.00 C887.92,1396.65 885.89,1398.00 885.00,1398.00 C884.11,1398.00 882.08,1399.35 880.50,1401.00 C878.92,1402.65 876.87,1404.00 875.94,1404.00 C875.01,1404.00 873.68,1404.67 873.00,1405.50 C872.32,1406.33 870.99,1407.00 870.06,1407.00 C869.13,1407.00 867.08,1408.35 865.50,1410.00 C863.92,1411.65 861.89,1413.00 861.00,1413.00 C860.11,1413.00 858.08,1414.35 856.50,1416.00 C854.92,1417.65 852.89,1419.00 852.00,1419.00 C851.11,1419.00 849.08,1420.35 847.50,1422.00 C845.92,1423.65 843.84,1425.00 842.87,1425.00 C841.91,1425.00 840.84,1425.45 840.50,1426.00 C840.16,1426.55 839.09,1427.00 838.13,1427.00 C837.16,1427.00 835.08,1428.35 833.50,1430.00 C831.92,1431.65 829.87,1433.00 828.94,1433.00 C828.01,1433.00 826.68,1433.67 826.00,1434.50 C825.32,1435.33 823.99,1436.00 823.06,1436.00 C822.13,1436.00 820.08,1437.35 818.50,1439.00 C816.92,1440.65 814.89,1442.00 814.00,1442.00 C813.11,1442.00 811.08,1443.35 809.50,1445.00 C807.92,1446.65 805.87,1448.00 804.94,1448.00 C804.01,1448.00 802.68,1448.67 802.00,1449.50 C801.32,1450.33 799.99,1451.00 799.06,1451.00 C798.13,1451.00 796.08,1452.35 794.50,1454.00 C792.92,1455.65 790.89,1457.00 790.00,1457.00 C789.11,1457.00 787.08,1458.35 785.50,1460.00 C783.92,1461.65 781.87,1463.00 780.94,1463.00 C780.01,1463.00 778.68,1463.67 778.00,1464.50 C777.32,1465.33 775.99,1466.00 775.06,1466.00 C774.13,1466.00 772.08,1467.35 770.50,1469.00 C768.92,1470.65 766.87,1472.00 765.94,1472.00 C765.01,1472.00 763.68,1472.67 763.00,1473.50 C762.32,1474.33 760.97,1475.00 760.00,1475.00 C759.03,1475.00 757.68,1475.67 757.00,1476.50 C756.32,1477.33 754.99,1478.00 754.06,1478.00 C753.13,1478.00 751.08,1479.35 749.50,1481.00 C747.92,1482.65 745.87,1484.00 744.94,1484.00 C744.01,1484.00 742.68,1484.67 742.00,1485.50 C741.32,1486.33 739.99,1487.00 739.06,1487.00 C738.13,1487.00 736.08,1488.35 734.50,1490.00 C732.92,1491.65 730.87,1493.00 729.94,1493.00 C729.01,1493.00 727.68,1493.67 727.00,1494.50 C726.32,1495.33 724.97,1496.00 724.00,1496.00 C723.03,1496.00 721.68,1496.67 721.00,1497.50 C720.32,1498.33 718.99,1499.00 718.06,1499.00 C717.13,1499.00 715.08,1500.35 713.50,1502.00 C711.92,1503.65 709.87,1505.00 708.94,1505.00 C708.01,1505.00 706.68,1505.67 706.00,1506.50 C705.32,1507.33 703.97,1508.00 703.00,1508.00 C702.03,1508.00 700.68,1508.67 700.00,1509.50 C699.32,1510.33 697.97,1511.00 697.00,1511.00 C696.03,1511.00 694.68,1511.67 694.00,1512.50 C693.32,1513.33 691.97,1514.00 691.00,1514.00 C690.03,1514.00 688.68,1514.67 688.00,1515.50 C687.32,1516.33 685.97,1517.00 685.00,1517.00 C684.03,1517.00 682.68,1517.67 682.00,1518.50 C681.32,1519.33 680.19,1520.00 679.50,1520.00 C678.81,1520.00 677.68,1520.67 677.00,1521.50 C676.32,1522.33 674.29,1523.00 672.50,1523.00 C670.71,1523.00 668.68,1523.67 668.00,1524.50 C667.32,1525.33 665.97,1526.00 665.00,1526.00 C664.03,1526.00 662.68,1526.67 662.00,1527.50 C661.32,1528.33 659.29,1529.00 657.50,1529.00 C655.71,1529.00 653.68,1529.67 653.00,1530.50 C652.21,1531.45 650.01,1532.00 647.00,1532.00 C643.99,1532.00 641.79,1532.55 641.00,1533.50 C639.99,1534.71 636.84,1535.00 624.50,1535.00 C612.16,1535.00 609.01,1534.71 608.00,1533.50 Z M414.21,1130.68 C412.77,1129.09 411.09,1128.89 400.80,1129.10 C390.65,1129.30 388.75,1129.09 387.03,1127.53 C385.38,1126.04 383.85,1125.81 378.05,1126.23 C372.23,1126.64 370.80,1126.43 369.47,1124.96 C368.18,1123.54 366.78,1123.30 362.19,1123.71 C357.38,1124.15 356.22,1123.92 354.71,1122.24 C353.30,1120.67 352.03,1120.35 348.71,1120.73 C345.34,1121.11 344.12,1120.79 342.64,1119.15 C341.32,1117.69 340.00,1117.25 338.11,1117.63 C336.26,1118.00 334.92,1117.57 333.69,1116.21 C332.28,1114.65 331.03,1114.36 327.48,1114.76 C323.99,1115.15 322.90,1114.91 322.41,1113.63 C321.99,1112.52 320.58,1112.00 318.02,1112.00 C315.88,1112.00 313.70,1111.35 313.00,1110.50 C312.32,1109.67 310.90,1109.00 309.85,1109.00 C308.80,1109.00 307.68,1108.33 307.36,1107.50 C306.99,1106.53 305.44,1106.00 303.02,1106.00 C300.88,1106.00 298.70,1105.35 298.00,1104.50 C297.32,1103.67 295.97,1103.00 295.00,1103.00 C294.03,1103.00 292.68,1102.33 292.00,1101.50 C291.32,1100.67 289.97,1100.00 289.00,1100.00 C288.03,1100.00 286.68,1099.33 286.00,1098.50 C285.32,1097.67 283.29,1097.00 281.50,1097.00 C279.71,1097.00 277.68,1096.33 277.00,1095.50 C276.32,1094.67 275.02,1093.99 274.13,1093.97 C273.23,1093.96 271.19,1092.61 269.58,1090.97 C267.98,1089.34 265.90,1088.00 264.96,1088.00 C264.01,1088.00 262.68,1087.33 262.00,1086.50 C261.32,1085.67 260.02,1084.99 259.13,1084.97 C258.23,1084.96 256.19,1083.61 254.58,1081.97 C252.98,1080.34 251.14,1079.00 250.50,1079.00 C249.86,1079.00 248.02,1077.66 246.42,1076.03 C244.81,1074.39 242.79,1073.04 241.92,1073.03 C241.05,1073.01 239.02,1071.66 237.42,1070.03 C235.81,1068.39 233.78,1067.04 232.90,1067.03 C232.02,1067.01 228.57,1064.30 225.24,1061.00 C221.91,1057.70 218.54,1055.00 217.75,1055.00 C215.83,1055.00 188.00,1027.24 188.00,1025.32 C188.00,1024.48 185.97,1021.75 183.50,1019.23 C181.02,1016.72 179.00,1014.02 179.00,1013.23 C179.00,1012.45 176.97,1009.75 174.50,1007.23 C172.02,1004.72 169.99,1001.96 169.97,1001.09 C169.96,1000.21 168.61,998.19 166.97,996.58 C165.34,994.98 164.00,992.90 164.00,991.96 C164.00,991.01 163.33,989.68 162.50,989.00 C161.68,988.32 160.99,987.02 160.97,986.13 C160.96,985.23 159.61,983.19 157.97,981.58 C156.15,979.79 155.00,977.64 155.00,976.00 C155.00,974.36 153.85,972.21 152.03,970.42 C150.01,968.44 149.05,966.50 149.03,964.37 C149.01,962.65 148.32,960.68 147.50,960.00 C146.67,959.32 146.00,957.97 146.00,957.00 C146.00,956.03 145.32,954.68 144.50,954.00 C143.68,953.32 143.00,951.97 143.00,951.00 C143.00,950.03 142.32,948.68 141.50,948.00 C140.68,947.32 140.00,945.29 140.00,943.50 C140.00,941.71 139.32,939.68 138.50,939.00 C137.68,938.32 137.00,936.29 137.00,934.50 C137.00,932.71 136.33,930.68 135.50,930.00 C134.68,929.32 134.00,927.29 134.00,925.50 C134.00,923.71 133.32,921.68 132.50,921.00 C131.55,920.21 131.00,918.01 131.00,915.00 C131.00,911.99 130.45,909.79 129.50,909.00 C128.68,908.32 128.00,906.29 128.00,904.50 C128.00,902.71 127.33,900.68 126.50,900.00 C125.40,899.09 125.00,896.67 125.00,891.00 C125.00,885.33 124.60,882.91 123.50,882.00 C122.40,881.09 122.00,878.67 122.00,873.00 C122.00,867.33 121.60,864.91 120.50,864.00 C119.21,862.93 119.00,856.90 119.00,821.00 C119.00,785.10 119.21,779.07 120.50,778.00 C121.60,777.09 122.00,774.67 122.00,769.00 C122.00,763.33 122.40,760.91 123.50,760.00 C124.54,759.14 125.00,756.84 125.00,752.50 C125.00,748.16 125.46,745.86 126.50,745.00 C127.45,744.21 128.00,742.01 128.00,739.00 C128.00,735.99 128.55,733.79 129.50,733.00 C130.45,732.21 131.00,730.01 131.00,727.00 C131.00,723.99 131.55,721.79 132.50,721.00 C133.33,720.32 134.00,718.29 134.00,716.50 C134.00,714.71 134.67,712.68 135.50,712.00 C136.32,711.32 137.00,709.29 137.00,707.50 C137.00,705.71 137.68,703.68 138.50,703.00 C139.33,702.32 140.00,700.97 140.00,700.00 C140.00,699.03 140.68,697.68 141.50,697.00 C142.32,696.32 143.00,694.29 143.00,692.50 C143.00,690.71 143.68,688.68 144.50,688.00 C145.32,687.32 146.00,685.97 146.00,685.00 C146.00,684.03 146.68,682.68 147.50,682.00 C148.33,681.32 149.00,680.19 149.00,679.50 C149.00,678.81 149.68,677.68 150.50,677.00 C151.33,676.32 152.00,674.97 152.00,674.00 C152.00,673.03 152.68,671.68 153.50,671.00 C154.33,670.32 155.00,668.97 155.00,668.00 C155.00,667.03 155.68,665.68 156.50,665.00 C157.32,664.32 158.00,662.97 158.00,662.00 C158.00,661.03 158.67,659.68 159.50,659.00 C160.32,658.32 161.00,656.97 161.00,656.00 C161.00,655.03 161.67,653.68 162.50,653.00 C163.32,652.32 164.00,650.99 164.00,650.04 C164.00,649.10 165.34,647.02 166.97,645.42 C168.61,643.81 169.96,641.77 169.97,640.87 C169.99,639.98 170.68,638.68 171.50,638.00 C172.32,637.32 173.00,635.99 173.00,635.06 C173.00,634.13 174.35,632.08 176.00,630.50 C177.65,628.92 179.00,626.91 179.00,626.03 C179.00,625.15 181.70,621.77 185.00,618.50 C188.30,615.23 191.00,611.87 191.00,611.02 C191.00,609.02 237.04,563.00 239.05,563.00 C239.89,563.00 242.57,560.98 245.00,558.50 C247.43,556.02 250.14,554.00 251.02,554.00 C251.90,554.00 253.92,552.65 255.50,551.00 C257.08,549.35 259.11,548.00 260.00,548.00 C260.89,548.00 262.92,546.65 264.50,545.00 C266.08,543.35 268.11,542.00 269.01,542.00 C269.91,542.00 271.72,540.87 273.02,539.48 C275.73,536.60 286.40,531.00 289.19,531.00 C290.22,531.00 291.32,530.33 291.64,529.50 C291.95,528.68 293.30,528.00 294.64,528.00 C295.97,528.00 297.32,527.33 297.64,526.50 C297.95,525.67 299.19,525.00 300.38,525.00 C301.58,525.00 303.32,524.11 304.25,523.02 C305.53,521.53 306.69,521.19 308.96,521.64 C311.20,522.09 312.13,521.83 312.59,520.62 C312.93,519.73 314.19,519.00 315.38,519.00 C316.58,519.00 318.32,518.11 319.25,517.02 C320.53,515.53 321.69,515.19 323.96,515.64 C326.20,516.09 327.13,515.83 327.59,514.62 C328.05,513.44 329.51,513.00 333.04,513.00 C335.99,513.00 338.44,512.42 339.36,511.50 C340.18,510.67 342.18,510.00 343.81,510.00 C345.43,510.00 347.32,509.32 348.00,508.50 C348.79,507.55 350.99,507.00 354.00,507.00 C357.01,507.00 359.21,506.45 360.00,505.50 C360.91,504.40 363.33,504.00 369.00,504.00 C374.67,504.00 377.09,503.60 378.00,502.50 C379.01,501.29 382.16,501.00 394.50,501.00 C406.84,501.00 409.99,500.71 411.00,499.50 C412.82,497.30 439.18,497.30 441.00,499.50 C442.01,500.71 445.16,501.00 457.50,501.00 C469.84,501.00 472.99,501.29 474.00,502.50 C474.86,503.54 477.16,504.00 481.50,504.00 C485.84,504.00 488.14,504.46 489.00,505.50 C489.79,506.45 491.99,507.00 495.00,507.00 C498.12,507.00 500.21,507.54 501.07,508.59 C501.94,509.63 503.31,509.99 505.08,509.63 C507.00,509.25 508.31,509.68 509.61,511.13 C510.92,512.56 512.23,513.00 514.11,512.63 C516.00,512.25 517.31,512.69 518.61,514.13 C519.92,515.56 521.23,516.00 523.11,515.63 C525.00,515.25 526.31,515.69 527.61,517.13 C528.92,518.56 530.23,519.00 532.11,518.63 C533.97,518.26 535.31,518.68 536.54,520.05 C537.51,521.12 539.11,522.00 540.10,522.00 C541.08,522.00 542.16,522.45 542.50,523.00 C542.84,523.55 543.94,524.00 544.94,524.00 C545.94,524.00 547.32,524.68 548.00,525.50 C548.68,526.33 550.03,527.00 551.00,527.00 C551.97,527.00 553.32,527.67 554.00,528.50 C554.68,529.32 556.03,530.00 557.00,530.00 C557.97,530.00 559.32,530.67 560.00,531.50 C560.68,532.33 562.03,533.00 563.00,533.00 C563.97,533.00 565.32,533.67 566.00,534.50 C566.68,535.33 568.03,536.00 569.00,536.00 C569.97,536.00 571.32,536.67 572.00,537.50 C572.68,538.33 574.01,539.00 574.94,539.00 C575.87,539.00 577.92,540.35 579.50,542.00 C581.08,543.65 583.10,545.00 583.98,545.00 C584.86,545.00 587.57,547.02 590.00,549.50 C592.43,551.98 595.12,554.00 595.97,554.00 C597.99,554.00 632.00,588.05 632.00,590.07 C632.00,590.93 633.35,592.92 635.00,594.50 C636.65,596.08 638.00,598.11 638.00,599.00 C638.00,599.89 639.35,601.92 641.00,603.50 C642.65,605.08 644.00,607.11 644.00,608.00 C644.00,608.89 645.35,610.92 647.00,612.50 C648.65,614.08 650.00,616.13 650.00,617.06 C650.00,617.99 650.67,619.32 651.50,620.00 C652.33,620.68 653.00,622.03 653.00,623.00 C653.00,623.97 653.67,625.32 654.50,626.00 C655.33,626.68 656.00,628.71 656.00,630.50 C656.00,632.29 656.67,634.32 657.50,635.00 C658.33,635.68 659.00,637.03 659.00,638.00 C659.00,638.97 659.67,640.32 660.50,641.00 C661.33,641.68 662.00,643.71 662.00,645.50 C662.00,647.29 662.67,649.32 663.50,650.00 C664.33,650.68 665.00,652.71 665.00,654.50 C665.00,656.29 665.67,658.32 666.50,659.00 C667.54,659.86 668.00,662.16 668.00,666.50 C668.00,670.84 668.46,673.14 669.50,674.00 C670.64,674.94 671.00,677.49 671.00,684.50 C671.00,691.51 671.36,694.06 672.50,695.00 C673.52,695.84 674.00,698.10 674.00,702.00 C674.00,705.90 673.52,708.16 672.50,709.00 C671.34,709.97 671.00,712.66 671.00,721.00 C671.00,729.34 670.66,732.03 669.50,733.00 C668.67,733.68 668.00,735.03 668.00,736.00 C668.00,736.97 667.33,738.32 666.50,739.00 C665.67,739.68 665.00,741.03 665.00,742.00 C665.00,742.97 664.33,744.32 663.50,745.00 C662.67,745.68 662.00,746.99 662.00,747.90 C662.00,750.02 648.97,763.00 646.85,763.00 C645.97,763.00 644.68,763.67 644.00,764.50 C643.14,765.54 640.84,766.00 636.50,766.00 C632.16,766.00 629.86,766.46 629.00,767.50 C628.21,768.45 626.01,769.00 623.00,769.00 C619.99,769.00 617.79,768.45 617.00,767.50 C616.32,766.67 614.29,766.00 612.50,766.00 C610.71,766.00 608.68,765.33 608.00,764.50 C607.32,763.67 605.97,763.00 605.00,763.00 C604.03,763.00 602.68,762.33 602.00,761.50 C601.32,760.67 600.01,760.00 599.10,760.00 C596.98,760.00 584.00,746.97 584.00,744.85 C584.00,743.97 583.33,742.68 582.50,742.00 C581.67,741.32 581.00,739.99 581.00,739.06 C581.00,738.13 579.65,736.08 578.00,734.50 C576.35,732.92 575.00,730.87 575.00,729.94 C575.00,729.01 574.33,727.68 573.50,727.00 C572.67,726.32 572.00,724.97 572.00,724.00 C572.00,723.03 571.33,721.68 570.50,721.00 C569.67,720.32 569.00,718.97 569.00,718.00 C569.00,717.03 568.33,715.68 567.50,715.00 C566.67,714.32 566.00,712.29 566.00,710.50 C566.00,708.71 565.33,706.68 564.50,706.00 C563.67,705.32 563.00,703.97 563.00,703.00 C563.00,702.03 562.33,700.68 561.50,700.00 C560.67,699.32 560.00,697.97 560.00,697.00 C560.00,696.03 559.33,694.68 558.50,694.00 C557.67,693.32 557.00,691.99 557.00,691.06 C557.00,690.13 555.65,688.08 554.00,686.50 C552.35,684.92 551.00,682.91 551.00,682.04 C551.00,680.01 532.96,662.00 530.92,662.00 C530.07,662.00 528.08,660.65 526.50,659.00 C524.92,657.35 522.87,656.00 521.94,656.00 C521.01,656.00 519.68,655.33 519.00,654.50 C518.32,653.67 516.97,653.00 516.00,653.00 C515.03,653.00 513.68,652.33 513.00,651.50 C512.32,650.67 510.97,650.00 510.00,650.00 C509.03,650.00 507.68,649.33 507.00,648.50 C506.32,647.67 504.97,647.00 504.00,647.00 C503.03,647.00 501.68,646.33 501.00,645.50 C500.32,644.67 498.29,644.00 496.50,644.00 C494.71,644.00 492.68,643.33 492.00,642.50 C491.21,641.55 489.01,641.00 486.00,641.00 C482.99,641.00 480.79,640.45 480.00,639.50 C479.02,638.32 476.17,638.00 466.50,638.00 C456.83,638.00 453.98,637.68 453.00,636.50 C452.14,635.46 449.84,635.00 445.50,635.00 C441.16,635.00 438.86,635.46 438.00,636.50 C437.02,637.68 434.17,638.00 424.50,638.00 C414.83,638.00 411.98,638.32 411.00,639.50 C410.21,640.45 408.01,641.00 405.00,641.00 C401.99,641.00 399.79,641.55 399.00,642.50 C398.32,643.33 396.29,644.00 394.50,644.00 C392.71,644.00 390.68,644.67 390.00,645.50 C389.32,646.33 387.97,647.00 387.00,647.00 C386.03,647.00 384.68,647.67 384.00,648.50 C383.32,649.33 381.29,650.00 379.50,650.00 C377.71,650.00 375.68,650.68 375.00,651.50 C374.32,652.33 372.97,653.00 372.00,653.00 C371.03,653.00 369.68,653.68 369.00,654.50 C368.32,655.33 366.99,656.00 366.06,656.00 C365.13,656.00 363.08,657.35 361.50,659.00 C359.92,660.65 357.89,662.00 357.00,662.00 C356.11,662.00 354.08,663.35 352.50,665.00 C350.92,666.65 348.92,668.00 348.05,668.00 C346.01,668.00 316.00,698.03 316.00,700.07 C316.00,700.93 314.65,702.92 313.00,704.50 C311.35,706.08 310.00,708.11 310.00,709.00 C310.00,709.89 308.65,711.92 307.00,713.50 C305.35,715.08 304.00,717.13 304.00,718.06 C304.00,718.99 303.32,720.32 302.50,721.00 C301.68,721.68 301.00,723.03 301.00,724.00 C301.00,724.97 300.33,726.32 299.50,727.00 C298.68,727.68 298.00,729.71 298.00,731.50 C298.00,733.29 297.33,735.32 296.50,736.00 C295.68,736.68 295.00,738.03 295.00,739.00 C295.00,739.97 294.32,741.32 293.50,742.00 C292.55,742.79 292.00,744.99 292.00,748.00 C292.00,751.01 291.45,753.21 290.50,754.00 C289.68,754.68 289.00,756.71 289.00,758.50 C289.00,760.29 288.33,762.32 287.50,763.00 C286.40,763.91 286.00,766.33 286.00,772.00 C286.00,777.67 285.60,780.09 284.50,781.00 C282.26,782.86 282.26,832.14 284.50,834.00 C285.54,834.86 286.00,837.16 286.00,841.50 C286.00,845.84 286.46,848.14 287.50,849.00 C288.32,849.68 289.00,851.71 289.00,853.50 C289.00,855.29 289.68,857.32 290.50,858.00 C291.45,858.79 292.00,860.99 292.00,864.00 C292.00,867.01 292.55,869.21 293.50,870.00 C294.32,870.68 295.00,872.03 295.00,873.00 C295.00,873.97 295.68,875.32 296.50,876.00 C297.32,876.68 298.00,878.03 298.00,879.00 C298.00,879.97 298.68,881.32 299.50,882.00 C300.32,882.68 301.00,884.03 301.00,885.00 C301.00,885.97 301.68,887.32 302.50,888.00 C303.32,888.68 304.00,890.01 304.00,890.94 C304.00,891.87 305.35,893.92 307.00,895.50 C308.65,897.08 310.00,899.11 310.00,900.00 C310.00,900.89 311.35,902.92 313.00,904.50 C314.65,906.08 316.00,908.08 316.00,908.95 C316.00,910.99 350.03,945.00 352.07,945.00 C352.93,945.00 354.92,946.35 356.50,948.00 C358.08,949.65 360.13,951.00 361.06,951.00 C361.99,951.00 363.32,951.67 364.00,952.50 C364.68,953.33 366.03,954.00 367.00,954.00 C367.97,954.00 369.32,954.67 370.00,955.50 C370.68,956.33 372.01,957.00 372.94,957.00 C373.87,957.00 375.95,958.38 377.56,960.07 C379.83,962.44 381.10,963.02 383.14,962.62 C384.97,962.26 386.32,962.69 387.54,964.05 C388.51,965.12 390.09,966.00 391.03,966.00 C391.98,966.00 393.35,966.71 394.07,967.59 C394.94,968.63 396.31,968.99 398.08,968.63 C400.01,968.25 401.31,968.68 402.64,970.15 C404.14,971.82 405.28,972.10 408.62,971.64 C411.98,971.18 413.10,971.46 414.63,973.15 C416.28,974.98 417.35,975.17 423.69,974.77 C429.05,974.42 431.24,974.67 432.30,975.73 C434.39,977.82 472.98,977.79 474.15,975.70 C474.77,974.58 476.53,974.38 482.02,974.77 C488.33,975.22 489.33,975.04 491.45,973.04 C493.13,971.47 494.47,971.01 496.00,971.50 C497.52,971.98 498.85,971.55 500.45,970.04 C502.07,968.52 503.46,968.08 505.19,968.51 C506.81,968.92 508.09,968.59 508.95,967.56 C509.66,966.70 511.03,966.00 512.00,966.00 C512.97,966.00 514.32,965.33 515.00,964.50 C515.68,963.67 517.03,963.00 518.00,963.00 C518.97,963.00 520.32,962.33 521.00,961.50 C521.68,960.67 523.03,960.00 524.00,960.00 C524.97,960.00 526.32,959.33 527.00,958.50 C527.68,957.67 529.01,957.00 529.94,957.00 C530.87,957.00 532.92,955.65 534.50,954.00 C536.08,952.35 538.10,951.00 538.98,951.00 C541.00,951.00 548.00,943.94 548.00,941.90 C548.00,941.07 549.55,938.89 551.45,937.05 C554.17,934.41 554.78,933.15 554.36,931.05 C554.01,929.31 554.38,927.93 555.41,927.07 C556.29,926.35 557.00,924.97 557.00,924.00 C557.00,923.03 557.67,921.68 558.50,921.00 C559.60,920.09 560.00,917.67 560.00,912.00 C560.00,906.33 560.40,903.91 561.50,903.00 C562.33,902.32 563.00,900.29 563.00,898.50 C563.00,896.71 563.67,894.68 564.50,894.00 C565.33,893.32 566.00,891.29 566.00,889.50 C566.00,887.71 566.67,885.68 567.50,885.00 C568.33,884.32 569.01,883.02 569.03,882.13 C569.04,881.23 570.39,879.19 572.03,877.58 C573.66,875.98 575.00,874.01 575.00,873.22 C575.00,871.31 582.34,864.00 584.26,864.00 C585.08,864.00 586.32,863.33 587.00,862.50 C587.68,861.67 589.03,861.00 590.00,861.00 C590.97,861.00 592.32,860.33 593.00,859.50 C593.68,858.67 595.71,858.00 597.50,858.00 C599.29,858.00 601.32,857.33 602.00,856.50 C602.91,855.40 605.33,855.00 611.00,855.00 C616.67,855.00 619.09,855.40 620.00,856.50 C620.79,857.45 622.99,858.00 626.00,858.00 C629.01,858.00 631.21,858.55 632.00,859.50 C632.68,860.33 634.03,861.00 635.00,861.00 C635.97,861.00 637.32,861.67 638.00,862.50 C638.68,863.33 640.03,864.00 641.00,864.00 C641.97,864.00 643.32,864.67 644.00,865.50 C644.68,866.33 645.91,867.00 646.72,867.00 C648.61,867.00 671.00,889.35 671.00,891.24 C671.00,892.02 672.34,893.98 673.97,895.58 C675.61,897.19 676.96,899.23 676.97,900.13 C676.99,901.02 677.71,902.35 678.59,903.07 C679.65,903.95 679.99,905.31 679.61,907.18 C679.21,909.22 679.62,910.50 681.15,911.93 C682.67,913.34 683.07,914.57 682.62,916.39 C682.16,918.23 682.56,919.45 684.12,920.90 C685.94,922.59 686.19,923.71 685.80,928.44 C685.42,932.94 685.68,934.31 687.17,935.65 C689.81,938.05 689.92,962.33 687.30,965.22 C685.92,966.75 685.65,968.75 685.88,975.83 C686.12,983.53 685.91,984.77 684.12,986.39 C682.69,987.69 682.25,989.00 682.63,990.89 C683.00,992.77 682.56,994.08 681.13,995.39 C679.69,996.69 679.25,998.00 679.63,999.89 C680.00,1001.77 679.56,1003.08 678.13,1004.39 C676.68,1005.69 676.25,1007.00 676.63,1008.92 C676.99,1010.69 676.63,1012.06 675.59,1012.93 C674.71,1013.65 674.00,1015.03 674.00,1016.00 C674.00,1016.97 673.33,1018.32 672.50,1019.00 C671.67,1019.68 671.00,1021.01 671.00,1021.94 C671.00,1022.87 669.65,1024.92 668.00,1026.50 C666.35,1028.08 665.00,1030.11 665.00,1031.00 C665.00,1031.89 663.65,1033.92 662.00,1035.50 C660.35,1037.08 659.00,1039.10 659.00,1039.98 C659.00,1040.86 656.98,1043.57 654.50,1046.00 C652.02,1048.43 650.00,1051.12 650.00,1051.98 C650.00,1053.99 630.95,1073.00 628.94,1073.00 C628.10,1073.00 625.43,1075.03 623.00,1077.50 C620.57,1079.97 617.86,1082.00 616.98,1082.00 C616.10,1082.00 614.08,1083.35 612.50,1085.00 C610.92,1086.65 608.89,1088.00 608.00,1088.00 C607.11,1088.00 605.08,1089.35 603.50,1091.00 C601.92,1092.65 599.87,1094.00 598.94,1094.00 C598.01,1094.00 596.68,1094.67 596.00,1095.50 C595.32,1096.33 593.97,1097.00 593.00,1097.00 C592.03,1097.00 590.68,1097.67 590.00,1098.50 C589.32,1099.33 587.97,1100.00 587.00,1100.00 C586.03,1100.00 584.68,1100.67 584.00,1101.50 C583.32,1102.33 581.97,1103.00 581.00,1103.00 C580.03,1103.00 578.68,1103.67 578.00,1104.50 C577.32,1105.33 575.97,1106.00 575.00,1106.00 C574.03,1106.00 572.68,1106.67 572.00,1107.50 C571.32,1108.33 569.97,1109.00 569.00,1109.00 C568.03,1109.00 566.65,1109.71 565.93,1110.59 C565.06,1111.63 563.69,1111.99 561.92,1111.63 C560.00,1111.25 558.69,1111.68 557.39,1113.13 C556.08,1114.56 554.77,1115.00 552.89,1114.63 C551.00,1114.25 549.69,1114.69 548.39,1116.13 C547.08,1117.56 545.77,1118.00 543.89,1117.63 C542.00,1117.25 540.68,1117.69 539.36,1119.15 C537.88,1120.79 536.66,1121.11 533.29,1120.73 C529.97,1120.36 528.70,1120.67 527.29,1122.23 C525.86,1123.81 524.68,1124.09 521.38,1123.64 C518.12,1123.19 516.88,1123.47 515.54,1124.96 C514.13,1126.52 512.91,1126.74 508.40,1126.28 C504.03,1125.83 502.58,1126.07 500.97,1127.53 C499.24,1129.09 497.36,1129.30 487.08,1129.10 C477.00,1128.89 475.04,1129.10 474.27,1130.47 C472.80,1133.11 416.58,1133.30 414.21,1130.68 Z M1434.00,1056.50 C1433.14,1055.46 1430.84,1055.00 1426.50,1055.00 C1422.16,1055.00 1419.86,1054.54 1419.00,1053.50 C1418.32,1052.67 1416.29,1052.00 1414.50,1052.00 C1412.71,1052.00 1410.68,1051.33 1410.00,1050.50 C1409.32,1049.67 1407.97,1049.00 1407.00,1049.00 C1406.03,1049.00 1404.68,1048.33 1404.00,1047.50 C1403.32,1046.67 1402.01,1046.00 1401.09,1046.00 C1399.02,1046.00 1389.00,1035.98 1389.00,1033.91 C1389.00,1033.06 1387.65,1031.08 1386.00,1029.50 C1383.89,1027.48 1383.00,1025.67 1383.00,1023.44 C1383.00,1021.68 1382.33,1019.68 1381.50,1019.00 C1380.34,1018.03 1380.00,1015.34 1380.00,1007.00 C1380.00,998.66 1380.34,995.97 1381.50,995.00 C1382.33,994.32 1383.00,992.97 1383.00,992.00 C1383.00,991.03 1383.67,989.68 1384.50,989.00 C1385.33,988.32 1386.00,986.97 1386.00,986.00 C1386.00,985.03 1386.67,983.68 1387.50,983.00 C1388.33,982.32 1389.00,981.07 1389.00,980.23 C1389.00,978.23 1410.56,957.00 1412.59,957.00 C1413.45,957.00 1415.50,955.65 1417.15,954.00 C1418.80,952.35 1420.96,951.00 1421.95,951.00 C1422.94,951.00 1424.32,950.33 1425.00,949.50 C1425.68,948.67 1427.03,948.00 1428.00,948.00 C1428.97,948.00 1430.32,947.33 1431.00,946.50 C1431.68,945.67 1432.81,945.00 1433.50,945.00 C1434.19,945.00 1435.32,944.33 1436.00,943.50 C1436.68,942.67 1438.03,942.00 1439.00,942.00 C1439.97,942.00 1441.32,941.33 1442.00,940.50 C1442.68,939.67 1444.03,939.00 1445.00,939.00 C1445.97,939.00 1447.32,938.33 1448.00,937.50 C1448.68,936.67 1450.03,936.00 1451.00,936.00 C1451.97,936.00 1453.32,935.33 1454.00,934.50 C1454.68,933.67 1456.03,933.00 1457.00,933.00 C1457.97,933.00 1459.32,932.33 1460.00,931.50 C1460.68,930.67 1462.71,930.00 1464.50,930.00 C1466.29,930.00 1468.32,929.33 1469.00,928.50 C1469.68,927.67 1471.03,927.00 1472.00,927.00 C1472.97,927.00 1474.32,926.33 1475.00,925.50 C1475.68,924.67 1477.71,924.00 1479.50,924.00 C1481.29,924.00 1483.32,923.33 1484.00,922.50 C1484.68,921.67 1486.71,921.00 1488.50,921.00 C1490.29,921.00 1492.32,920.33 1493.00,919.50 C1493.68,918.67 1495.03,918.00 1496.00,918.00 C1496.97,918.00 1498.32,917.33 1499.00,916.50 C1499.68,915.67 1501.71,915.00 1503.50,915.00 C1505.29,915.00 1507.32,914.33 1508.00,913.50 C1508.68,912.67 1510.71,912.00 1512.50,912.00 C1514.29,912.00 1516.32,911.33 1517.00,910.50 C1517.68,909.67 1519.71,909.00 1521.50,909.00 C1523.29,909.00 1525.32,908.33 1526.00,907.50 C1526.68,906.67 1528.71,906.00 1530.50,906.00 C1532.29,906.00 1534.32,905.33 1535.00,904.50 C1535.68,903.67 1537.71,903.00 1539.50,903.00 C1541.29,903.00 1543.32,902.33 1544.00,901.50 C1544.68,900.67 1546.03,900.00 1547.00,900.00 C1547.97,900.00 1549.32,899.33 1550.00,898.50 C1550.68,897.67 1552.71,897.00 1554.50,897.00 C1556.29,897.00 1558.32,896.33 1559.00,895.50 C1559.68,894.67 1561.03,894.00 1562.00,894.00 C1562.97,894.00 1564.32,893.33 1565.00,892.50 C1565.68,891.67 1567.03,891.00 1568.00,891.00 C1568.97,891.00 1570.32,890.33 1571.00,889.50 C1571.68,888.67 1573.03,888.00 1574.00,888.00 C1574.97,888.00 1576.32,887.33 1577.00,886.50 C1577.68,885.67 1579.03,885.00 1580.00,885.00 C1580.97,885.00 1582.32,884.33 1583.00,883.50 C1583.68,882.67 1585.03,882.00 1586.00,882.00 C1586.97,882.00 1588.32,881.33 1589.00,880.50 C1589.68,879.67 1591.01,879.00 1591.94,879.00 C1592.87,879.00 1594.92,877.65 1596.50,876.00 C1598.08,874.35 1600.13,873.00 1601.06,873.00 C1601.99,873.00 1603.32,872.33 1604.00,871.50 C1604.68,870.67 1606.01,870.00 1606.94,870.00 C1607.87,870.00 1609.92,868.65 1611.50,867.00 C1613.08,865.35 1615.11,864.00 1616.00,864.00 C1616.89,864.00 1618.92,862.65 1620.50,861.00 C1622.08,859.35 1624.11,858.00 1625.00,858.00 C1625.89,858.00 1627.92,856.65 1629.50,855.00 C1631.08,853.35 1633.09,852.00 1633.97,852.00 C1634.85,852.00 1638.23,849.30 1641.50,846.00 C1644.77,842.70 1648.13,840.00 1648.98,840.00 C1651.00,840.00 1675.00,815.94 1675.00,813.92 C1675.00,813.07 1676.35,811.08 1678.00,809.50 C1679.65,807.92 1681.00,805.89 1681.00,805.00 C1681.00,804.11 1682.35,802.08 1684.00,800.50 C1685.65,798.92 1687.00,796.87 1687.00,795.94 C1687.00,795.01 1687.67,793.68 1688.50,793.00 C1689.33,792.32 1690.00,790.97 1690.00,790.00 C1690.00,789.03 1690.67,787.68 1691.50,787.00 C1692.33,786.32 1693.00,784.29 1693.00,782.50 C1693.00,780.71 1693.67,778.68 1694.50,778.00 C1695.33,777.32 1696.00,775.29 1696.00,773.50 C1696.00,771.71 1696.67,769.68 1697.50,769.00 C1698.33,768.32 1699.00,766.29 1699.00,764.50 C1699.00,762.71 1699.67,760.68 1700.50,760.00 C1701.60,759.09 1702.00,756.67 1702.00,751.00 C1702.00,745.33 1702.40,742.91 1703.50,742.00 C1704.71,740.99 1705.00,737.84 1705.00,725.50 C1705.00,713.16 1704.71,710.01 1703.50,709.00 C1702.36,708.06 1702.00,705.51 1702.00,698.50 C1702.00,691.49 1701.64,688.94 1700.50,688.00 C1699.60,687.25 1699.00,685.06 1699.00,682.50 C1699.00,679.94 1698.40,677.75 1697.50,677.00 C1696.67,676.32 1696.00,674.29 1696.00,672.50 C1696.00,670.71 1695.33,668.68 1694.50,668.00 C1693.67,667.32 1693.00,665.97 1693.00,665.00 C1693.00,664.03 1692.33,662.68 1691.50,662.00 C1690.67,661.32 1690.00,659.29 1690.00,657.50 C1690.00,655.71 1689.33,653.68 1688.50,653.00 C1687.67,652.32 1687.00,650.99 1687.00,650.06 C1687.00,649.13 1685.65,647.08 1684.00,645.50 C1682.35,643.92 1681.00,641.89 1681.00,641.00 C1681.00,640.11 1679.65,638.08 1678.00,636.50 C1676.35,634.92 1675.00,632.92 1675.00,632.05 C1675.00,630.01 1646.97,602.00 1644.92,602.00 C1644.07,602.00 1642.08,600.65 1640.50,599.00 C1638.92,597.35 1636.89,596.00 1636.00,596.00 C1635.11,596.00 1633.08,594.65 1631.50,593.00 C1629.92,591.35 1627.87,590.00 1626.94,590.00 C1626.01,590.00 1624.68,589.33 1624.00,588.50 C1623.32,587.67 1621.29,587.00 1619.50,587.00 C1617.71,587.00 1615.68,586.33 1615.00,585.50 C1614.32,584.67 1612.97,584.00 1612.00,584.00 C1611.03,584.00 1609.68,583.33 1609.00,582.50 C1608.32,581.67 1606.52,581.00 1605.00,581.00 C1603.48,581.00 1601.68,580.33 1601.00,579.50 C1600.32,578.67 1598.29,578.00 1596.50,578.00 C1594.71,578.00 1592.68,577.33 1592.00,576.50 C1591.14,575.46 1588.84,575.00 1584.50,575.00 C1580.16,575.00 1577.86,574.54 1577.00,573.50 C1575.97,572.26 1572.34,572.00 1556.00,572.00 C1539.66,572.00 1536.03,572.26 1535.00,573.50 C1534.14,574.54 1531.84,575.00 1527.50,575.00 C1523.16,575.00 1520.86,575.46 1520.00,576.50 C1519.32,577.33 1517.29,578.00 1515.50,578.00 C1513.71,578.00 1511.68,578.67 1511.00,579.50 C1510.32,580.33 1508.29,581.00 1506.50,581.00 C1504.71,581.00 1502.68,581.67 1502.00,582.50 C1501.32,583.32 1500.02,584.01 1499.13,584.03 C1498.23,584.04 1496.19,585.39 1494.58,587.03 C1492.98,588.66 1491.02,590.00 1490.23,590.00 C1489.44,590.00 1486.75,592.02 1484.23,594.50 C1481.72,596.98 1479.02,599.00 1478.23,599.00 C1476.29,599.00 1463.00,612.39 1463.00,614.35 C1463.00,615.21 1460.98,617.84 1458.50,620.21 C1456.03,622.57 1454.01,625.34 1454.00,626.36 C1454.00,627.38 1452.88,629.10 1451.50,630.18 C1450.12,631.26 1449.00,632.93 1449.00,633.89 C1449.00,634.84 1447.65,636.92 1446.00,638.50 C1444.35,640.08 1443.00,642.13 1443.00,643.06 C1443.00,643.99 1442.33,645.32 1441.50,646.00 C1440.67,646.68 1440.00,648.03 1440.00,649.00 C1440.00,649.97 1439.33,651.32 1438.50,652.00 C1437.67,652.68 1437.00,654.71 1437.00,656.50 C1437.00,658.29 1436.33,660.32 1435.50,661.00 C1434.67,661.68 1434.00,663.03 1434.00,664.00 C1434.00,664.97 1433.33,666.32 1432.50,667.00 C1431.67,667.68 1431.00,669.03 1431.00,670.00 C1431.00,670.97 1430.33,672.32 1429.50,673.00 C1428.67,673.68 1428.00,675.71 1428.00,677.50 C1428.00,679.29 1427.33,681.32 1426.50,682.00 C1425.67,682.68 1425.00,684.71 1425.00,686.50 C1425.00,688.29 1424.33,690.32 1423.50,691.00 C1422.67,691.68 1422.00,693.71 1422.00,695.50 C1422.00,697.29 1421.33,699.32 1420.50,700.00 C1419.67,700.68 1419.00,702.03 1419.00,703.00 C1419.00,703.97 1418.33,705.32 1417.50,706.00 C1416.67,706.68 1416.00,708.67 1416.00,710.41 C1416.00,712.84 1414.96,714.60 1411.55,717.95 C1409.10,720.36 1406.96,723.26 1406.80,724.41 C1406.62,725.64 1405.64,726.62 1404.41,726.80 C1403.26,726.96 1400.36,729.10 1397.95,731.55 C1395.55,734.00 1392.83,736.00 1391.91,736.00 C1391.00,736.00 1389.68,736.67 1389.00,737.50 C1388.32,738.33 1386.29,739.00 1384.50,739.00 C1382.71,739.00 1380.68,739.67 1380.00,740.50 C1379.02,741.68 1376.17,742.00 1366.50,742.00 C1356.83,742.00 1353.98,741.68 1353.00,740.50 C1352.32,739.67 1350.97,739.00 1350.00,739.00 C1349.03,739.00 1347.68,738.33 1347.00,737.50 C1346.32,736.67 1345.01,736.00 1344.11,736.00 C1341.99,736.00 1326.00,719.98 1326.00,717.85 C1326.00,716.97 1325.33,715.68 1324.50,715.00 C1323.67,714.32 1323.00,712.97 1323.00,712.00 C1323.00,711.03 1322.33,709.68 1321.50,709.00 C1320.67,708.32 1320.00,706.97 1320.00,706.00 C1320.00,705.03 1319.29,703.66 1318.42,702.94 C1317.16,701.89 1316.90,699.86 1317.12,692.86 C1317.35,685.75 1317.08,683.75 1315.70,682.22 C1313.24,679.50 1313.20,658.54 1315.65,655.83 C1317.05,654.29 1317.27,651.88 1317.09,640.71 C1316.89,628.68 1317.05,627.26 1318.81,625.67 C1320.35,624.28 1320.64,623.02 1320.24,619.48 C1319.85,615.99 1320.09,614.90 1321.37,614.41 C1322.60,613.94 1323.00,612.45 1323.00,608.36 C1323.00,604.46 1323.42,602.78 1324.50,602.36 C1325.48,601.99 1326.00,600.43 1326.00,597.86 C1326.00,595.30 1326.52,593.74 1327.50,593.36 C1328.57,592.95 1329.00,591.28 1329.00,587.52 C1329.00,584.05 1329.51,581.82 1330.50,581.00 C1331.33,580.32 1332.00,578.97 1332.00,578.00 C1332.00,577.03 1332.67,575.68 1333.50,575.00 C1334.33,574.32 1335.00,572.97 1335.00,572.00 C1335.00,571.03 1335.67,569.68 1336.50,569.00 C1337.33,568.32 1338.00,566.97 1338.00,566.00 C1338.00,565.03 1338.67,563.68 1339.50,563.00 C1340.33,562.32 1341.00,560.29 1341.00,558.50 C1341.00,556.71 1341.67,554.68 1342.50,554.00 C1343.33,553.32 1344.00,552.19 1344.00,551.50 C1344.00,550.81 1344.67,549.68 1345.50,549.00 C1346.33,548.32 1347.00,546.99 1347.00,546.06 C1347.00,545.13 1348.35,543.08 1350.00,541.50 C1351.65,539.92 1353.00,537.89 1353.00,537.00 C1353.00,536.11 1354.35,534.08 1356.00,532.50 C1357.65,530.92 1359.00,528.89 1359.00,528.00 C1359.00,527.11 1360.35,525.08 1362.00,523.50 C1363.65,521.92 1365.00,519.90 1365.00,519.02 C1365.00,518.14 1367.03,515.43 1369.50,513.00 C1371.97,510.57 1374.00,507.89 1374.00,507.03 C1374.00,505.02 1411.04,468.00 1413.05,468.00 C1413.89,468.00 1416.57,465.98 1419.00,463.50 C1421.43,461.03 1424.13,459.00 1425.00,459.00 C1425.87,459.00 1428.57,456.97 1431.00,454.50 C1433.43,452.02 1436.14,450.00 1437.02,450.00 C1437.90,450.00 1439.92,448.65 1441.50,447.00 C1443.08,445.35 1445.13,444.00 1446.06,444.00 C1446.99,444.00 1448.32,443.33 1449.00,442.50 C1449.68,441.68 1450.98,440.99 1451.87,440.97 C1452.77,440.96 1454.81,439.61 1456.42,437.97 C1458.02,436.34 1460.10,435.00 1461.04,435.00 C1461.99,435.00 1463.32,434.32 1464.00,433.50 C1464.68,432.68 1466.71,432.00 1468.50,432.00 C1470.29,432.00 1472.32,431.32 1473.00,430.50 C1473.68,429.68 1474.81,429.00 1475.50,429.00 C1476.19,429.00 1477.32,428.33 1478.00,427.50 C1478.68,426.68 1480.03,426.00 1481.00,426.00 C1481.97,426.00 1483.32,425.32 1484.00,424.50 C1484.68,423.68 1486.71,423.00 1488.50,423.00 C1490.29,423.00 1492.32,422.33 1493.00,421.50 C1493.68,420.68 1495.71,420.00 1497.50,420.00 C1499.29,420.00 1501.32,419.32 1502.00,418.50 C1502.68,417.68 1504.71,417.00 1506.50,417.00 C1508.29,417.00 1510.32,416.32 1511.00,415.50 C1511.86,414.46 1514.16,414.00 1518.50,414.00 C1522.84,414.00 1525.14,413.54 1526.00,412.50 C1526.86,411.46 1529.16,411.00 1533.50,411.00 C1537.84,411.00 1540.14,410.54 1541.00,409.50 C1542.01,408.29 1545.16,408.00 1557.50,408.00 C1569.84,408.00 1572.99,407.71 1574.00,406.50 C1574.93,405.38 1577.44,405.00 1584.00,405.00 C1590.56,405.00 1593.07,405.38 1594.00,406.50 C1595.02,407.72 1598.33,408.00 1612.00,408.00 C1625.67,408.00 1628.98,408.28 1630.00,409.50 C1630.86,410.54 1633.16,411.00 1637.50,411.00 C1641.84,411.00 1644.14,411.46 1645.00,412.50 C1645.86,413.54 1648.16,414.00 1652.50,414.00 C1656.84,414.00 1659.14,414.46 1660.00,415.50 C1660.68,416.32 1662.71,417.00 1664.50,417.00 C1666.29,417.00 1668.32,417.68 1669.00,418.50 C1669.79,419.45 1671.99,420.00 1675.00,420.00 C1678.01,420.00 1680.21,420.55 1681.00,421.50 C1681.68,422.32 1683.03,423.00 1684.00,423.00 C1684.97,423.00 1686.32,423.68 1687.00,424.50 C1687.68,425.33 1689.71,426.00 1691.50,426.00 C1693.29,426.00 1695.32,426.68 1696.00,427.50 C1696.68,428.33 1698.03,429.00 1699.00,429.00 C1699.97,429.00 1701.32,429.68 1702.00,430.50 C1702.68,431.32 1704.03,432.00 1705.00,432.00 C1705.97,432.00 1707.32,432.68 1708.00,433.50 C1708.68,434.32 1710.03,435.00 1711.00,435.00 C1711.97,435.00 1713.32,435.67 1714.00,436.50 C1714.68,437.32 1716.03,438.00 1717.00,438.00 C1717.97,438.00 1719.32,438.68 1720.00,439.50 C1720.68,440.32 1722.03,441.00 1723.00,441.00 C1723.97,441.00 1725.32,441.68 1726.00,442.50 C1726.68,443.33 1728.01,444.00 1728.94,444.00 C1729.87,444.00 1731.92,445.35 1733.50,447.00 C1735.08,448.65 1737.11,450.00 1738.00,450.00 C1738.89,450.00 1740.92,451.35 1742.50,453.00 C1744.08,454.65 1746.11,456.00 1747.00,456.00 C1747.89,456.00 1749.92,457.35 1751.50,459.00 C1753.08,460.65 1755.09,462.00 1755.96,462.00 C1756.84,462.00 1760.90,465.37 1765.00,469.50 C1769.10,473.62 1773.14,477.00 1773.99,477.00 C1775.98,477.00 1800.00,501.05 1800.00,503.04 C1800.00,503.86 1804.05,508.57 1809.00,513.50 C1813.95,518.43 1818.00,523.17 1818.00,524.04 C1818.00,524.91 1819.35,526.92 1821.00,528.50 C1822.65,530.08 1824.00,532.11 1824.00,533.00 C1824.00,533.89 1825.35,535.92 1827.00,537.50 C1828.65,539.08 1830.00,541.11 1830.00,542.00 C1830.00,542.89 1831.35,544.92 1833.00,546.50 C1834.65,548.08 1836.00,550.13 1836.00,551.06 C1836.00,551.99 1836.67,553.32 1837.50,554.00 C1838.33,554.68 1839.00,556.03 1839.00,557.00 C1839.00,557.97 1839.67,559.32 1840.50,560.00 C1841.33,560.68 1842.00,562.01 1842.00,562.94 C1842.00,563.87 1843.35,565.92 1845.00,567.50 C1846.65,569.08 1848.00,571.13 1848.00,572.06 C1848.00,572.99 1848.67,574.32 1849.50,575.00 C1850.33,575.68 1851.00,577.03 1851.00,578.00 C1851.00,578.97 1851.67,580.32 1852.50,581.00 C1853.33,581.68 1854.00,583.71 1854.00,585.50 C1854.00,587.29 1854.67,589.32 1855.50,590.00 C1856.33,590.68 1857.00,592.03 1857.00,593.00 C1857.00,593.97 1857.67,595.32 1858.50,596.00 C1859.33,596.68 1860.00,598.03 1860.00,599.00 C1860.00,599.97 1860.67,601.32 1861.50,602.00 C1862.32,602.68 1863.00,604.71 1863.00,606.50 C1863.00,608.29 1863.67,610.32 1864.50,611.00 C1865.33,611.68 1866.00,613.71 1866.00,615.50 C1866.00,617.29 1866.67,619.32 1867.50,620.00 C1868.45,620.79 1869.00,622.99 1869.00,626.00 C1869.00,629.01 1869.55,631.21 1870.50,632.00 C1871.33,632.68 1872.00,634.71 1872.00,636.50 C1872.00,638.29 1872.67,640.32 1873.50,641.00 C1874.45,641.79 1875.00,643.99 1875.00,647.00 C1875.00,650.01 1875.55,652.21 1876.50,653.00 C1877.54,653.86 1878.00,656.16 1878.00,660.50 C1878.00,664.84 1878.46,667.14 1879.50,668.00 C1880.64,668.94 1881.00,671.49 1881.00,678.50 C1881.00,685.51 1881.36,688.06 1882.50,689.00 C1883.79,690.07 1884.00,696.10 1884.00,732.00 C1884.00,767.90 1883.79,773.93 1882.50,775.00 C1881.40,775.91 1881.00,778.33 1881.00,784.00 C1881.00,789.67 1880.60,792.09 1879.50,793.00 C1878.48,793.84 1878.00,796.10 1878.00,800.00 C1878.00,803.90 1877.52,806.16 1876.50,807.00 C1875.55,807.79 1875.00,809.99 1875.00,813.00 C1875.00,816.01 1874.45,818.21 1873.50,819.00 C1872.67,819.68 1872.00,821.71 1872.00,823.50 C1872.00,825.29 1871.33,827.32 1870.50,828.00 C1869.67,828.68 1869.00,830.71 1869.00,832.50 C1869.00,834.29 1868.33,836.32 1867.50,837.00 C1866.67,837.68 1866.00,839.71 1866.00,841.50 C1866.00,843.29 1865.33,845.32 1864.50,846.00 C1863.67,846.68 1863.00,848.71 1863.00,850.50 C1863.00,852.29 1862.33,854.32 1861.50,855.00 C1860.67,855.68 1860.00,857.03 1860.00,858.00 C1860.00,858.97 1859.33,860.32 1858.50,861.00 C1857.67,861.68 1857.00,863.03 1857.00,864.00 C1857.00,864.97 1856.33,866.32 1855.50,867.00 C1854.67,867.68 1854.00,869.03 1854.00,870.00 C1854.00,870.97 1853.33,872.32 1852.50,873.00 C1851.67,873.68 1851.00,875.03 1851.00,876.00 C1851.00,876.97 1850.33,878.32 1849.50,879.00 C1848.67,879.68 1848.00,881.03 1848.00,882.00 C1848.00,882.97 1847.33,884.32 1846.50,885.00 C1845.67,885.68 1845.00,887.01 1845.00,887.94 C1845.00,888.87 1843.65,890.92 1842.00,892.50 C1840.35,894.08 1839.00,896.11 1839.00,897.00 C1839.00,897.89 1837.65,899.92 1836.00,901.50 C1834.35,903.08 1833.00,905.11 1833.00,906.00 C1833.00,906.89 1831.65,908.92 1830.00,910.50 C1828.35,912.08 1827.00,914.09 1827.00,914.96 C1827.00,915.83 1822.95,920.57 1818.00,925.50 C1813.05,930.43 1809.00,935.18 1809.00,936.05 C1809.00,938.01 1804.92,942.00 1802.92,942.00 C1802.12,942.00 1796.08,947.40 1789.50,954.00 C1782.92,960.60 1776.83,966.00 1775.97,966.00 C1775.12,966.00 1772.43,968.02 1770.00,970.50 C1767.57,972.98 1764.86,975.00 1763.97,975.00 C1763.08,975.00 1761.29,976.12 1760.00,977.50 C1758.71,978.88 1756.91,980.00 1756.01,980.00 C1755.11,980.00 1753.08,981.35 1751.50,983.00 C1749.92,984.65 1747.89,986.00 1747.00,986.00 C1746.11,986.00 1744.08,987.35 1742.50,989.00 C1740.92,990.65 1738.87,992.00 1737.94,992.00 C1737.01,992.00 1735.68,992.67 1735.00,993.50 C1734.32,994.33 1732.97,995.00 1732.00,995.00 C1731.03,995.00 1729.68,995.67 1729.00,996.50 C1728.32,997.33 1726.99,998.00 1726.06,998.00 C1725.13,998.00 1723.08,999.35 1721.50,1001.00 C1719.48,1003.11 1717.67,1004.00 1715.44,1004.00 C1713.68,1004.00 1711.68,1004.67 1711.00,1005.50 C1710.32,1006.33 1708.97,1007.00 1708.00,1007.00 C1707.03,1007.00 1705.68,1007.67 1705.00,1008.50 C1704.32,1009.33 1702.97,1010.00 1702.00,1010.00 C1701.03,1010.00 1699.68,1010.67 1699.00,1011.50 C1698.32,1012.33 1696.29,1013.00 1694.50,1013.00 C1692.71,1013.00 1690.68,1013.67 1690.00,1014.50 C1689.32,1015.33 1687.97,1016.00 1687.00,1016.00 C1686.03,1016.00 1684.68,1016.67 1684.00,1017.50 C1683.32,1018.33 1681.29,1019.00 1679.50,1019.00 C1677.71,1019.00 1675.68,1019.67 1675.00,1020.50 C1674.32,1021.33 1672.29,1022.00 1670.50,1022.00 C1668.71,1022.00 1666.68,1022.67 1666.00,1023.50 C1665.32,1024.33 1663.29,1025.00 1661.50,1025.00 C1659.71,1025.00 1657.68,1025.67 1657.00,1026.50 C1656.32,1027.33 1654.29,1028.00 1652.50,1028.00 C1650.71,1028.00 1648.68,1028.67 1648.00,1029.50 C1647.32,1030.33 1645.29,1031.00 1643.50,1031.00 C1641.71,1031.00 1639.68,1031.67 1639.00,1032.50 C1638.21,1033.45 1636.01,1034.00 1633.00,1034.00 C1629.99,1034.00 1627.79,1034.55 1627.00,1035.50 C1626.25,1036.40 1624.06,1037.00 1621.50,1037.00 C1618.94,1037.00 1616.75,1037.60 1616.00,1038.50 C1615.14,1039.54 1612.84,1040.00 1608.50,1040.00 C1604.16,1040.00 1601.86,1040.46 1601.00,1041.50 C1600.14,1042.54 1597.84,1043.00 1593.50,1043.00 C1589.16,1043.00 1586.86,1043.46 1586.00,1044.50 C1585.09,1045.60 1582.67,1046.00 1577.00,1046.00 C1571.33,1046.00 1568.91,1046.40 1568.00,1047.50 C1567.06,1048.64 1564.51,1049.00 1557.50,1049.00 C1550.49,1049.00 1547.94,1049.36 1547.00,1050.50 C1546.03,1051.66 1543.34,1052.00 1535.00,1052.00 C1526.66,1052.00 1523.97,1052.34 1523.00,1053.50 C1522.02,1054.68 1519.17,1055.00 1509.50,1055.00 C1499.83,1055.00 1496.98,1055.32 1496.00,1056.50 C1494.94,1057.77 1490.23,1058.00 1465.00,1058.00 C1439.77,1058.00 1435.06,1057.77 1434.00,1056.50 Z" fill="#E2211C"/></g></svg>